<?xml version="1.0" encoding="UTF-8"?><svg xmlns="http://www.w3.org/2000/svg" xmlns:xlink="http://www.w3.org/1999/xlink" height="473.7" preserveAspectRatio="xMidYMid meet" version="1.0" viewBox="-0.0 -0.1 501.2 473.7" width="501.2" zoomAndPan="magnify"><g><g id="change1_1"><path d="M108.93,442.84c-1.23,1.44-1.73,2.85-2.33,4.16c-2.09,4.51-4.99,8.39-8.35,12.04c-2.2,2.39-4.44,4.69-7,6.68 c-4.67,3.62-10.18,4.98-15.9,5.43c-2.73,0.21-5.49,0.68-8.2,0.55c-4.29-0.2-8.54-0.89-12.71-2.11c-9.98-2.91-17.81-8.73-24.3-16.78 c-6.39-7.91-10.97-16.7-14.37-26.19c-1.98-5.54-3.99-11.1-4.84-16.95c-1.06-7.29-1.61-14.63-0.25-21.95 c0.67-3.61,2.9-6.15,6.13-7.82c2.11-1.08,4.18-0.51,6.27,0.14c2.24,0.69,4.36,1.67,6.7,2.17c7.06,1.49,13.45-0.31,19.49-3.69 c4.58-2.56,8.39-6.11,11.65-10.22c3.49-4.39,5.32-9.59,6.9-14.86c1.37-4.6,2.42-9.29,3.74-13.91c2.7-9.45,8.35-16.46,17.14-21.05 c7.99-4.18,16.41-7.02,25.19-8.83c4.4-0.91,8.89-1.39,13.36-1.88c3.14-0.34,6.26,0.1,9.29,1.08c3.92,1.27,6.84,3.82,7.94,7.7 c3.07,10.83,7.1,21.37,9.17,32.52c1.3,7.01,3.61,13.85,7.5,20.01c3.57,5.65,8.77,8.81,15.16,10.29c2.05,0.47,4.07,0.31,6.13,0.09 c4.1-0.44,8.21-0.73,12.3,0.15c9.3,2.02,12.3,7.62,13.7,15.23c1.19,6.42,0.01,12.68-0.9,18.97c-0.7,4.85-1.77,9.6-3.69,14.17 c-3.84,9.17-9.39,16.99-17.4,22.94c-7.55,5.61-15.64,10.19-24.95,12.18c-5.98,1.28-12.02,1.4-18.11,0.61 c-4.42-0.57-8.67-1.59-12.75-3.32c-8.49-3.6-15.65-8.91-20.95-16.56C109.51,443.58,109.33,443.36,108.93,442.84z" fill="#c07d27"/></g><g id="change2_1"><path d="M408.35,90.21c-1.21,2.78-0.85,5.7-1.33,8.49c-1.81,10.65-5.53,20.49-12.36,28.92 c-7.32,9.03-16.66,15.01-28.35,16.38c-7.16,0.84-14.27,0.03-21.12-2.66c-13.64-5.36-23.64-14.91-31.36-27.04 c-5.59-8.78-9.33-18.37-11.36-28.58c-1.29-6.45-2.11-12.98-1.76-19.57c0.48-9.15,2.08-18.06,5.81-26.55 c3.09-7.03,7.23-13.28,12.92-18.42c6.18-5.57,13.32-9.15,21.64-10.54c9.28-1.54,17.97,0.24,26.33,4.05c2.36,1.07,2.88,0.8,4.4-1.19 c3.57-4.67,8.31-7.73,13.66-9.87c6.45-2.57,13.16-3.59,20.13-3.63c13.49-0.08,26.2,3.11,38.52,8.34 c10.76,4.56,20.61,10.63,29.45,18.2c7.48,6.4,14.07,13.69,19.11,22.28c3.21,5.47,5.51,11.25,6.67,17.5 c1.87,10.08-0.31,19.14-7.08,26.84c-3.55,4.03-8.22,6.64-13.25,8.54c-7.65,2.89-15.63,4-23.71,3.37 c-11.39-0.88-22.43-3.41-32.96-8.06C417.6,94.91,413.02,92.48,408.35,90.21z" fill="#e4ba43"/></g><g id="change3_1"><path d="M385.28,276.54c-1.9,4.75-3.75,9.47-5.84,14.12c-2.58,5.75-5.76,11.15-8.87,16.6c-2.41,4.23-5.34,8.03-9,11.2 c-5.51,4.77-11.36,9.05-18.46,11.26c-4.2,1.31-6.33,0.57-8.16-3.32c-3.73-7.92-6.45-16.21-8.42-24.74 c-1.01-4.38-2.02-8.77-2.63-13.24c-0.61-4.45-1.2-8.91-1.61-13.39c-0.55-5.99-0.59-11.97-0.43-17.94 c0.26-9.59,1.15-19.12,3.19-28.54c1.64-7.61,3.76-14.99,7.18-22.02c1.99-4.1,4.76-7.56,8.27-10.22c5.64-4.27,11.66-8.02,18.5-10.17 c4.02-1.27,8.16-1.91,12.36-2.41c4.22-0.5,8.46-0.74,12.63-0.36c7.21,0.66,14.46,0.59,21.67,1.5c8.4,1.05,16.34,3.21,23.71,7.32 c7.23,4.03,13.95,8.79,19.7,14.79c2.38,2.48,4.37,5.29,6.18,8.21c0.96,1.54,1.4,3.28,1.64,5c0.72,5.35,0.83,10.68,0.26,16.11 c-0.61,5.75-1.44,11.44-2.36,17.14c-1.15,7.13-3.29,13.96-6.33,20.45c-4.75,10.13-9.4,20.33-15.62,29.69 c-3.42,5.15-7.35,9.93-11.32,14.66c-1.45,1.72-2.8,3.53-4.28,5.23c-2.81,3.23-6.24,5.26-10.62,5.63c-3.84,0.33-6.69-1.26-8.88-4.19 c-1.65-2.21-2.97-4.65-3.86-7.26c-2.71-8-4.45-16.23-6-24.52C386.84,287.63,386.12,282.11,385.28,276.54z" fill="#f1acd1"/></g><g id="change4_1"><path d="M376.48,433.79c-2.34,4.51-5.03,7.95-8.25,11.02c-4.54,4.33-9.79,7.47-15.49,10.01 c-5.78,2.58-11.83,4.08-17.98,5.41c-7.66,1.66-15.43,2.2-23.11,1.38c-9.35-1-18.61-2.95-27.02-7.54 c-6.64-3.63-12.46-8.23-16.06-15.12c-4.42-8.47-3.42-16.69,1.39-24.61c3.76-6.2,9.23-10.65,15.44-14.21 c8.53-4.9,17.83-7.59,27.5-9.06c6.33-0.97,12.75-1.01,19.1-0.57c9.24,0.65,18.25,2.64,26.59,6.83c6.17,3.1,11.81,7.01,15.55,12.91 c1.11,0.07,1.32-0.66,1.61-1.25c3.49-6.89,9.1-11.72,15.49-15.72c9.2-5.76,19.32-8.94,30-10.66c4.75-0.76,9.53-1.26,14.29-1.45 c3.86-0.15,7.84,0.14,11.72,0.61c5.15,0.63,10.22,1.68,15.18,3.3c8.43,2.75,16.19,6.64,22.28,13.23c5.23,5.66,8,12.36,7.14,20.16 c-0.55,4.96-2.63,9.4-5.66,13.39c-6.53,8.61-15.42,13.84-25.29,17.55c-7.82,2.94-15.92,4.69-24.28,5.48 c-4.23,0.4-8.44,0.6-12.63,0.37c-13.59-0.76-26.59-3.64-38.03-11.56C382.31,441.15,379.08,438.19,376.48,433.79z" fill="#fd6c49"/></g><g id="change4_2"><path d="M19.44,82.82c-0.2-11.19,2.43-21.67,7.78-31.39c8.97-16.3,22.6-26.6,40.83-30.53 c3.9-0.84,7.92-1.41,11.95-1.29c13.5,0.42,25.76,4.5,36.73,12.48c8.43,6.13,14.89,13.93,19.64,23.11c3.21,6.2,5.47,12.8,6.52,19.75 c0.63,4.16,1.27,8.34,1.11,12.56c-0.47,11.76-3.36,22.85-9.57,32.95c-6.28,10.21-14.74,18.06-25.58,23.23 c-5.69,2.72-11.66,4.49-17.97,5.25c-16.75,2.03-31.69-2.39-45.02-12.43c-8.02-6.05-14.44-13.61-18.96-22.6 c-3.54-7.04-6.01-14.44-6.95-22.35C19.6,88.62,19.58,85.7,19.44,82.82z" fill="#fd6c49"/></g><g id="change5_1"><path d="M120.17,190.18c7.79,0.02,14.12,0.64,20.48,1.08c6.26,0.43,12.49,1.11,18.67,2.05 c9.96,1.51,19.85,3.47,29.57,6.19c8.24,2.3,16.32,4.98,23.88,9.06c5.06,2.73,9.78,5.93,12.87,10.93c2.66,4.31,3.86,8.99,2.35,14.06 c-2.18,7.36-5.7,13.95-11.13,19.45c-1.88,1.91-4.22,3.21-6.46,4.61c-6.2,3.88-12.79,6.91-20.09,7.98 c-3.79,0.56-7.69,0.49-11.48,0.03c-4.16-0.5-8.29-1.36-12.31-2.72c-7.77-2.63-14.19-7.03-19.15-13.58c-1.54-2.03-3.29-3.9-4.9-5.87 c-0.66-0.81-1.24-0.91-1.86-0.02c-1.12,1.62-2.63,2.9-3.86,4.45c-2.59,3.26-6.06,5.58-9.57,7.74c-4.44,2.73-9.1,5.02-13.91,7.05 c-8.15,3.44-16.5,4.12-25.03,1.92c-8.52-2.2-16.52-5.56-23.56-11.04c-1.92-1.49-3.41-3.32-4.68-5.23 c-4.44-6.72-7.39-14.04-7.96-22.18c-0.02-0.29,0.01-0.6-0.07-0.88c-1.69-5.72,0.94-10.15,4.41-14.22 c5.36-6.31,12.31-10.2,19.96-13.12c8.1-3.09,16.45-5.23,25-6.34C108.05,190.69,114.79,189.81,120.17,190.18z" fill="#f7e6d1"/></g><g id="change3_2"><path d="M200.82,398.44c-0.73-1.46-1.74-2.83-2.99-3.97c-1.25-1.14-2.73-2.04-4.28-2.66c-1.73-0.7-3.52-0.95-5.28-0.94 l-4.11,0.11c-1.3,0.08-2.57-0.06-3.86-0.12c-1.08-0.01-2.11-0.26-3.15-0.44c-1.05-0.15-2.03-0.54-3.02-0.85 c-2.74-1.01-5.35-2.3-7.58-4.07l-0.12,0.13c-1.03-0.82-2.08-1.62-3-2.57c-0.38-0.38-0.89-0.63-1.28-1.01l-1.54-1.38 c-0.48-0.5-0.95-1.02-1.42-1.55c-0.56-0.62-0.91-1.43-1.41-2.12c-1.25-1.95-2.42-3.98-3.41-6.11c-1.03-2.12-1.93-4.31-2.78-6.52 c-0.3-0.81-0.54-1.68-0.74-2.54c-0.73-2.82-1.14-5.77-1.72-8.57c-0.32-1.56-0.76-3.21-1.16-4.7c-0.43-1.58-0.56-3.2-0.53-4.78 c0.03-1.3-0.21-1.95-0.6-2.65c-0.18-0.32-0.36-0.51-0.53-0.45c-0.17,0.06-0.33,0.32-0.45,0.79c-0.26,0.98-0.49,2.06-0.5,3.09 c-0.02,2.07-0.1,4.18,0.39,6.18c0.08,0.32,0.08,0.71,0.09,1.06c0.01,1.7,0,3.41,0.13,5.12c0.27,3.57,0.82,7.16,1.63,10.72 c0.49,2.28,1.62,4.2,2.58,6.24c0.31,0.66,0.69,1.3,1.04,1.95c0.34,0.64,0.74,1.27,1.15,1.87c0.45,0.66,0.96,1.26,1.4,1.91 c0.96,1.57,1.99,3.11,3.12,4.59c2.08,2.76,4.86,5.1,7.9,6.68c1.25,0.75,2.53,1.3,3.72,2.03c0.61,0.32,1.24,0.59,1.85,0.89 c0.62,0.28,1.23,0.63,1.89,0.82c0.76,0.26,1.54,0.49,2.32,0.73c0.78,0.26,1.58,0.37,2.35,0.61c0.85,0.25,1.83,0.33,2.77,0.34 c-0.08,0.28-0.17,0.57-0.27,0.86c-0.11,0.32,0.3,0.59,0.44,0.9c0.09,0.2,0.22,0.39,0.36,0.59c0.08,0.11,0.29,0.2,0.3,0.31 c0.02,0.25-0.01,0.52-0.07,0.79c-0.09,0.5-0.01,1.01,0.28,1.47c0.24,0.39-0.08,0.85-0.18,1.3c-0.07,0.26-0.01,0.52-0.14,0.81 c-0.08,0.18,0.05,0.33,0.13,0.48c0.08,0.15,0.21,0.28,0.29,0.43c0.27,0.46,0.52,0.96,0.81,1.35c0.16,0.2,0.36,0.38,0.51,0.58 c0.29,0.41,0.58,0.74,0.87,1.09c0.17,0.2,0.37,0.39,0.51,0.6c0.12,0.18,0.17,0.41,0.25,0.62c0.11,0.26,0.2,0.53,0.34,0.77 c0.06,0.11,0.2,0.16,0.3,0.23c0.1,0.08,0.35,0.07,0.26,0.25c-0.12,0.27,0.08,0.3-0.07,0.58c-0.17,0.32,0.21,0.22,0.19,0.4 c-0.05,0.47,0.5,0.33,0.9,0.34c0.05,0,0.17-0.03,0.15,0.02c-0.17,0.38,0.22,0.23,0.39,0.26c0.3,0.07,0.44,0.25,0.34,0.68 c-0.04,0.18-0.06,0.37,0.06,0.4c0.3,0.08,0.49,0.28,0.97,0.14c0.15-0.05,0.22,0.03,0.31,0.07c0.52,0.22,1.01,0.46,1.54,0.66 c0.39,0.14,0.75,0.29,0.7,0.94c-0.01,0.08,0.03,0.12,0.07,0.14c0.2,0.15,0.42,0.29,0.62,0.45c0.27,0.22,0.52,0.47,0.77,0.72 c0.19,0.2,0.29,0.5,0.54,0.62c0.3,0.15,0.66,0.23,1.05,0.22c0.29-0.02,0.63-0.16,0.83,0c0.16,0.13,0.46,0.03,0.71-0.02 c0.41-0.1,0.53,0.4,1.05,0.05c0.03-0.02,0.06-0.02,0.06,0.01c0.06,0.31,0.39,0.05,0.47,0.33c0.07,0.24,0.19,0.4,0.27,0.65 c0.05,0.18,0.08,0.4,0.26,0.36c0.13-0.03,0.19,0.16,0.28,0.25c0.02,0.02,0.05,0.03,0.07,0.04c-0.08,0.54-0.16,1.09-0.38,1.4 c-0.46,0.7-0.6,1.62-1.11,2.23c-0.56,0.67-0.58,1.77-0.97,2.43c-1.02,1.7-1.22,3.35-1.73,5.03c-0.07,0.23-0.12,0.59-0.22,0.68 c-0.81,0.73-0.91,1.75-1.27,2.59c-0.66,1.5-1.46,2.75-2.62,3.78c-0.48,0.44-1.06,0.99-1.38,1.55c-0.86,1.43-1.95,2.76-2.65,4.24 c-0.24,0.46-0.66,0.96-1.04,1.4c-2.2,2.6-4.66,4.98-7.35,7.07c-1.97,1.54-4.12,2.88-6.53,3.35c-0.29,0.05-0.6,0.18-0.88,0.3 c-1.49,0.61-3,1.19-4.56,1.57c-1.06,0.26-2.13,0.47-3.25,0.62c-1.11,0.15-2.21,0.37-3.32,0.41c-0.84,0.06-1.68,0.1-2.52,0.12 c-0.84-0.02-1.67-0.03-2.5,0.02c-1.04,0.07-2.07,0.01-3.11,0.06c-1.04,0.03-2.06-0.05-3.08-0.03c-0.74,0-1.45-0.05-2.19-0.08 c-0.74-0.02-1.48-0.14-2.24-0.38c-1.23-0.31-2.51-0.57-3.78-0.82c-2-0.53-3.83-1.77-5.77-2.4c-0.11-0.03-0.27-0.11-0.35-0.19 c-0.46-0.41-0.98-0.74-1.49-1.08c-0.51-0.34-1.07-0.65-1.46-1.14c-0.35-0.41-0.73-0.82-1.11-1.22c-0.37-0.41-0.71-0.85-1.03-1.28 c-0.47-0.6-0.75-1.22-1.44-1.79c-0.51-0.4-0.85-1.08-1.26-1.64c-0.87-1.21-1.98-2.37-2.45-3.77c-0.5-0.49-0.93-1.07-1.36-1.65 c-0.4-0.6-0.81-1.2-1.23-1.75c-1.25-1.63-2.2-3.34-2.68-5.39c-0.23-1.01-0.71-2.14-1.15-3.14c-0.61-1.36-1.27-2.22-1.93-2.52 c-0.65-0.3-1.32-0.04-1.77,0.99c-0.2,0.45-0.4,0.88-0.54,1.39c-0.09,0.35-0.19,0.77-0.14,1.22c0.1,1.08,0.29,2.19,0.52,3.29 c0.08,0.4,0.19,0.93,0.38,1.2c1.23,1.74,2.12,3.77,3.17,5.64c0.92,1.57,2.06,2.93,2.99,4.6c0.72,1.35,1.86,2.69,3,3.8 c0.48,0.49,0.96,0.94,1.41,1.43c0.44,0.49,0.88,0.97,1.33,1.46c0.52,0.58,1.13,1.44,1.65,1.63c0.92,0.37,1.18,0.91,1.67,1.46 c0.26,0.31,0.6,0.6,0.9,0.91c0.84,0.9,1.92,1.5,2.97,2.14c1.11,0.54,2.2,1.13,3.32,1.65c0.69,0.33,1.41,0.63,2.15,0.86 c0.75,0.21,1.51,0.41,2.26,0.62c0.86,0.25,1.7,0.41,2.55,0.36c0.88-0.04,1.9-0.04,2.94,0.38c0.3,0.12,0.72,0.15,1.09,0.2 c4.65,0.51,9.23,0.02,13.41-1.15c1.54-0.42,3.05-0.82,4.6-1.16c1.55-0.39,3.08-0.84,4.58-1.39c2.46-0.91,4.85-2.03,7.09-3.37 c0.22-0.13,0.37-0.36,0.57-0.53c0.91-0.78,1.93-1.56,2.94-1.76c2.16-0.43,3.99-2.06,5.6-3.69c1.71-1.73,3.19-3.6,4.83-5.4 c0.6-0.67,1.11-1.46,1.64-2.2c1.01-1.37,1.87-3,2.89-4.15c1.13-1.25,1.82-2.76,2.78-4.1c0.87-1.2,1.54-2.69,2.15-4.11 c0.76-1.8,1.62-3.67,1.64-5.57c0-0.27,0.17-0.7,0.29-1.01c0.9-2.09,1.38-4.3,1.35-6.54c0-0.73,0.02-1.54,0.12-2.31 c0.42-3.59,0.23-7.19-0.06-10.89C201.95,401.21,201.47,399.76,200.82,398.44z M196.92,411.97c-0.1-0.01-0.19-0.04-0.41,0.16 c-0.23,0.21-0.42,0.29-0.4,0.03c0-0.07-0.06-0.06-0.1-0.07c-0.52-0.17-1.22-0.09-2.01,0.06c-0.58,0.11-0.93-0.12-1.29-0.33 c-0.3-0.17-0.57-0.39-0.86-0.58c-0.03-0.02-0.13,0.05-0.19,0.06c-0.25,0.06-0.44,0-0.25-0.4c0.39-0.85,0.1-0.96-0.18-1.1 c-0.3-0.13-0.66-0.2-0.8-0.51c-0.05-0.12-0.21-0.12-0.3-0.2c-0.17-0.14-0.5-0.16-0.45-0.48c0.05-0.35-0.2-0.41-0.18-0.71 c0.02-0.27-0.14-0.4-0.29-0.53c-0.19-0.16-0.25-0.45-0.84-0.25c-0.09,0.03-0.11-0.03-0.11-0.09c0-0.38-0.22-0.56-0.72-0.52 c-0.17,0.02-0.29-0.02-0.35-0.1c-0.26-0.38-0.72-0.65-0.44-1.37c0.1-0.25,0.03-0.41-0.04-0.56c-0.16-0.34-0.35-0.62-0.41-0.97 c-0.03-0.19-0.14-0.35-0.21-0.48c-0.16-0.23-0.21-0.48-0.31-0.8c-0.1-0.25-0.06-0.54,0.02-0.82c0.12-0.41,0.24-0.8,0.36-1.2 l-0.17,0.02c0.02-0.18,0.05-0.35,0.04-0.53c-0.01-0.07-0.12-0.13-0.19-0.2c-0.17-0.16-0.36-0.34-0.48-0.52 c-0.07-0.11,0-0.23-0.04-0.35c-0.23-0.62-0.56-1.27-1.18-1.92c-0.11-0.12-0.13-0.24-0.18-0.37c-0.01-0.02-0.01-0.04-0.02-0.06 l3.29-0.18c1.1-0.1,2.16-0.06,3.17,0.1c1.11,0.17,2.16,0.46,3.09,0.99c1.79,1.01,3.15,2.79,3.99,5c0.5,1.29,0.86,2.71,1,4.17 c0.13,1.25,0.06,2.54-0.05,3.82c-0.07,0.93-0.2,1.86-0.35,2.79c-0.03-0.04-0.02-0.15-0.02-0.25c0-0.1-0.02-0.16-0.02-0.24 c-0.03-0.45-0.41-0.23-0.58-0.47C197.34,411.87,197.09,411.98,196.92,411.97z M95.3,423.74c0.53,0.58,0.86,1.91,0.76,3.79 c-0.07,1.37-0.28,2.91-0.69,4.14c-0.84,2.49-1.26,4.83-1.73,7.37c-0.33,1.72-0.99,3.53-1.39,5.27c-1.07,1.54-1.67,3.48-2.69,5.13 c-0.44,0.77-1.04,1.51-1.4,2.26c-0.47,1.04-1.09,1.64-1.74,2.36c-0.87,1.03-1.83,2.1-2.78,3.05c-0.58,0.52-1.05,1.14-1.52,1.75 c-0.5,0.6-1.02,1.17-1.63,1.63c-0.11,0.08-0.25,0.25-0.33,0.37c-1.46,2.1-3.82,3.69-5.89,5.27c-0.62,0.55-1.3,1.03-2,1.5 c-0.7,0.47-1.4,0.94-2.18,1.24c-1.9,0.87-3.49,1.74-5.3,2.52c-2.52,0.96-5.23,1.69-7.96,2.01c-1.09,0.11-2.19,0.24-3.29,0.22 l-3.29-0.04c-1.44-0.07-2.88-0.18-4.32-0.27c-1.44-0.21-2.88-0.35-4.3-0.6l-3.15-0.62l-3.11-0.85c-0.4-0.1-0.82-0.27-1.15-0.46 c-2.82-1.51-5.71-2.85-8.6-4.42c-3.87-2.2-7.36-5.09-10.39-8.38c-0.51-0.58-1.05-1.24-1.57-1.67c-0.82-0.68-1.51-1.54-2.23-2.4 c-0.69-0.88-1.29-1.83-1.95-2.72c-0.5-0.71-0.85-1.7-1.12-2.5c-0.59-1.92-1.38-3.64-2.35-5.53c-0.57-1.03-1.35-2.08-1.46-3.46 c-0.01-0.18-0.28-0.55-0.4-0.84c-0.98-2.04-2.08-3.95-2.35-6.56c-0.1-0.99-0.77-2.27-0.63-3.39c0.1-1-0.26-2.16-0.15-3.24 c0.06-0.72-0.32-1.89-0.45-2.87c-0.15-0.99-0.34-1.98-0.4-2.97c-0.08-1.08-0.13-2.16-0.14-3.24c-0.04-1.08-0.01-2.16,0.01-3.24 c0.04-1.73,0.18-3.46,0.29-5.19c0.13-2.03,0.27-4.08,0.58-6.13c0.57-3.49,1.24-6.88,2.9-10.46c0.87-1.81,2.13-3.75,4.05-5.17 c1.73-1.26,3.74-1.94,5.55-2.28c1.83-0.35,3.53-0.44,5.17-0.49c1.21-0.04,2.37-0.1,3.53-0.1c1.14,0,2.33-0.04,3.37,0.11 c1.71,0.24,3.47,0.3,5.16,0.42c2.89,0.21,5.75,0.53,8.8,0.12c1.8-0.24,3.61-0.47,5.43-0.71l2.49-0.43c0.79-0.23,1.63-0.37,2.4-0.64 c0.84-0.29,1.69-0.56,2.47-0.99c0.82-0.35,1.54-0.87,2.29-1.36c0.61-0.46,1.05-1.1,1.57-1.65c0.91-1.07,1.76-2.18,2.5-3.4 c1.16-1.87,1.8-3.93,2.74-6.06c1.49-3.37,2.45-7.11,3.08-10.94c0.31-1.84,0.61-3.69,0.78-5.56c0.03-0.39,0.06-0.82,0-1.18 c-0.33-2.23-0.26-4.55-0.43-6.82c-0.08-1.13,0.01-2.33,0.08-3.4c0.03-0.51,0.13-0.79,0.29-0.86c0.15-0.08,0.36,0,0.61,0.32 c0.52,0.66,0.88,1.37,1.01,2.87c0.15,1.83,0.36,3.69,0.76,5.54c0.38,1.76,0.69,3.75,0.75,5.66c0.14,3.43-0.32,7.02-1.01,10.5 c-0.19,1.07-0.51,2.13-0.7,3.18c-0.59,2.86-1.56,5.73-3.04,8.42c-1.47,2.69-3.5,5.19-6.02,7.17c-0.96,0.67-1.97,1.32-2.99,1.86 c-0.42,0.24-0.83,0.52-1.27,0.74l-1.31,0.64c-0.87,0.47-1.79,0.76-2.71,1.1c-0.73,0.3-1.48,0.5-2.24,0.64 c-0.47,0.08-0.94,0.16-1.4,0.22l-1.32,0.12c-0.88,0.09-1.76,0.15-2.65,0.2l-0.02,0.18c-3.83,0.16-7.67,0.13-11.46-0.11 c-0.91-0.05-1.82-0.11-2.72-0.17c0.04,0.03,0.07,0.05,0.12,0.08c0.35,0.2,0.7,0.45,0.87,0.69c0.29,0.43,0.27,0.88,0.32,1.33 c0.02,0.14,0,0.27,0.09,0.42c0.44,0.82,0.51,1.65,0.44,2.43c-0.02,0.14-0.15,0.24-0.14,0.39c0.02,0.25,0.1,0.53,0.15,0.81 c0.02,0.11,0.08,0.24,0.04,0.32c-0.1,0.21-0.25,0.39-0.38,0.58l0.15,0.08c-0.38,0.37-0.75,0.72-1.16,1.04 c-0.3,0.22-0.55,0.46-0.7,0.76c-0.19,0.35-0.47,0.66-0.64,1.03c-0.11,0.21-0.23,0.41-0.42,0.57c-0.34,0.29-0.57,0.65-0.88,0.95 c-0.14,0.13-0.29,0.28-0.57,0.27c-0.8-0.01-0.98,0.49-1.33,0.86c-0.07,0.08-0.09,0.22-0.06,0.38c0.1,0.51-0.1,0.77-0.5,0.83 c-0.06,0.01-0.12,0.04-0.09,0.13c0.23,0.6-0.09,0.7-0.27,0.91c-0.15,0.17-0.3,0.35-0.59,0.35c-0.32-0.01-0.41,0.26-0.77,0.2 c-0.33-0.06-0.39,0.28-0.57,0.45c-0.1,0.09-0.13,0.26-0.26,0.3c-0.35,0.12-0.5,0.48-0.73,0.76c-0.21,0.27-0.44,0.57-1.18-0.03 c-0.34-0.28-0.45-0.12-0.48,0.15c-0.01,0.06,0.03,0.18,0,0.2c-0.29,0.23-0.62,0.41-0.92,0.65c-0.37,0.28-0.77,0.48-1.01,1.08 c-0.34,0.81-0.84,1.47-1.49,1.83c-0.05,0.03-0.1,0.1-0.16,0.05c-0.23-0.17-0.33,0.03-0.39,0.35c-0.05,0.3-0.18,0.35-0.31,0.43 c-0.22,0.14-0.43,0.4-0.69,0.38c-0.41-0.04-0.76,0.4-1.22,0.03c-0.08-0.06-0.16-0.1-0.23-0.19c-0.14-0.16-0.24-0.36-0.37-0.06 c-0.08,0.16-0.26-0.02-0.39-0.09c-0.23-0.11-0.44-0.14-0.67-0.03c-0.27,0.13-0.57,0.18-0.82-0.04c-0.3-0.27-0.63,0-0.95-0.04 c-0.37-0.06-0.73-0.22-1.2,0.15c-0.08,0.06-0.14-0.07-0.19-0.15c-0.14-0.24-0.27-0.48-0.37-0.76c-0.04-0.12-0.04-0.33-0.02-0.53 c0.02-0.29,0.07-0.6,0.11-0.91c0.22-1.38,0.92-2.65,1.31-2.84c0.15-0.07,0.29-0.07,0.37,0.13c0.15,0.38,0.43,0.29,0.7,0.04 c0.18-0.17,0.35-0.11,0.53-0.37c0.12,0.43,0.32,0.24,0.49,0.36c0.08,0.06,0.17,0.22,0.24,0.14c0.1-0.1,0.18,0.1,0.28,0.24 c0.14,0.2,0.28,0.26,0.44,0.45c0.18,0.21,0.3-0.18,0.49,0.06c0.02,0.02,0.04,0.01,0.05-0.03c0.18-0.57,0.51-0.27,0.71-0.59 c0.12-0.21,0.23-0.48,0.39-0.48c0.21-0.02,0.29-0.34,0.41-0.57c0.17-0.31,0.36-0.5,0.58-0.63c0.17-0.11,0.43-0.03,0.64-0.06 c0.28-0.04,0.54-0.15,0.8-0.25c0.19-0.07,0.35-0.22,0.53-0.33c0.03-0.02,0.07-0.04,0.14,0c0.53,0.31,0.76,0.04,0.95-0.26 c0.26-0.41,0.52-0.8,0.77-1.2c0.04-0.07,0.11-0.12,0.07-0.27c-0.11-0.47,0.07-0.6,0.13-0.85c0.03-0.1,0.19-0.05,0.36,0.02 c0.39,0.17,0.56,0.07,0.6-0.21c0.02-0.15-0.15-0.52,0.2-0.33c0.05,0.03,0-0.09,0-0.14c-0.03-0.36-0.23-0.86,0.2-0.77 c0.17,0.03,0-0.32,0.31-0.16c0.28,0.14,0.26-0.04,0.53,0.07c0.18,0.07,0.12-0.15,0.17-0.24c0.05-0.09,0.06-0.21,0.14-0.27 c0.18-0.13,0.38-0.23,0.58-0.35c0.16-0.09,0.35-0.16,0.47-0.29c0.14-0.15,0.22-0.35,0.33-0.53c0.17-0.31,0.34-0.61,0.49-0.93 c0.07-0.17,0.1-0.37,0.16-0.54c0.12-0.3,0.24-0.6,0.33-0.91c0.04-0.11,0.02-0.25,0.06-0.36c0.03-0.11,0.01-0.26,0.17-0.29 c0.26-0.05,0.36-0.2,0.55-0.3c0.31-0.16,0.8-0.25,0.79-0.62c-0.04-0.43,0.11-0.78,0.36-1.07c0.14-0.16,0.27-0.33,0.34-0.52 c0.02-0.08-0.15-0.23-0.19-0.33c-0.07-0.19-0.14-0.37-0.17-0.53c-0.05-0.26-0.39-0.56-0.21-0.75c0.26-0.29,0.47-0.62,0.68-0.93 c0.1-0.15,0.3-0.31,0.4-0.46c0.02-0.03,0.03-0.07-0.03-0.1c-0.24-0.13-0.26-0.26-0.26-0.38c-0.95-0.05-1.9-0.1-2.84-0.12 c-3.15-0.05-6.36-0.24-8.96,0.52c-0.76,0.23-1.44,0.51-2.03,0.9c-0.61,0.36-1.14,0.84-1.66,1.4c-0.92,1.02-1.63,2.4-2.19,3.88 c-0.56,1.48-0.99,3.08-1.37,4.69c-0.36,1.46-0.63,2.98-1.02,4.34c-1.13,3.86-0.98,8.06-0.77,12.13c0.03,0.87,0.2,1.79,0.41,2.59 c0.62,2.45,1.02,4.9,1.24,7.47c0.04,0.38,0.12,0.89,0.25,1.16c0.95,1.89,1.37,4.12,2,6.22c0.53,1.65,1.1,3.36,1.52,4.97 c0.2,0.91,0.55,1.76,0.89,2.63c0.32,0.87,0.69,1.73,0.98,2.63c0.25,0.84,0.66,1.7,1.17,2.53c0.48,0.85,1.02,1.69,1.55,2.48 c0.55,0.88,1.19,1.69,1.76,2.53c1.45,2.33,3.38,4.21,5.33,6.02c0.96,0.83,1.92,1.68,2.87,2.5c0.47,0.41,0.89,0.88,1.32,1.31 c0.43,0.43,0.82,0.89,1.17,1.4c0.62,0.99,2.01,1.61,3.25,2.11c0.27,0.12,0.59,0.11,0.85,0.23l2.01,0.92 c0.67,0.3,1.38,0.52,2.07,0.78c1.36,0.56,2.82,0.86,4.23,1.26c3.49,0.74,7.07,1.21,10.61,0.84c4.83-0.52,9.59-1.45,14.11-3.04 c0.35-0.14,0.74-0.33,1.06-0.38c0.57-0.09,1.09-0.24,1.55-0.47c0.44-0.25,0.83-0.55,1.15-0.86c0.31-0.29,0.65-0.53,1.02-0.74 c0.36-0.22,0.72-0.45,1.1-0.69c1.32-0.76,2.46-1.81,3.7-2.6c2.01-1.33,3.5-3.26,5.41-4.72c0.32-0.27,0.64-0.58,0.97-0.83 c0.59-0.44,1.14-0.74,1.46-1.7c0.18-0.52,0.97-1.22,1.45-1.87c0.86-1.07,1.55-2.21,2.15-3.51c0.66-1.52,1.4-3.17,2.18-4.58 c1-1.77,1.36-3.65,1.94-5.49c0.67-2.18,1.34-4.5,1.33-6.76c-0.01-0.35,0.21-0.88,0.35-1.29c0.39-1.13,0.77-2.27,1.15-3.36 c0.16-0.46,0.4-0.83,0.64-1.14c0.33-0.45,0.68-0.82,1.02-1.21C94.06,423.32,94.76,423.15,95.3,423.74z" fill="#f1acd1"/></g><g id="change4_3"><path d="M137.55,248.68c-0.32,0.35-0.73,0.69-1.19,0.8c-0.93,0.22-1.52,0.8-2.08,1.54c-0.37,0.51-0.95,0.82-1.32,1.36 c-0.75-0.03-1.23,0.51-1.85,0.74c-0.29,0.11-0.64,0.13-0.84,0.34c-0.28,0.29-0.62,0.26-0.97,0.31c-0.49,0.06-0.93,0.25-1.44,0.29 c-0.57,0.05-0.87,0.62-1.44,0.64c-0.05,0-0.11,0.05-0.14,0.1c-0.51,0.86-1.51,0.99-2.16,1.65c-0.4,0.42-0.83,0.86-1.36,1.05 c-0.66,0.25-1.09,0.77-1.62,1.19c-0.74,0.56-1.53,1.11-2.4,1.44c-0.69,0.28-1.46,0.37-2.18,0.58c-0.95,0.26-1.88,0.59-2.86,0.81 c-0.71,0.18-1.4,0.41-2.11,0.61c-0.14,0.04-0.29,0.07-0.42,0.05c-1.15-0.2-2.21,0.04-3.28,0.42c-0.73,0.23-1.45,0.5-2.2,0.67 l-2.26,0.49c-0.26,0.06-0.55,0.08-0.77,0.25c-0.68,0.54-1.5,0.49-2.26,0.67c-0.3,0.06-0.67-0.07-0.96-0.23 c-0.69-0.38-1.35-0.37-2.1-0.27c-0.41,0.07-0.89,0.43-1.33,0.01c-0.06-0.05-0.22,0.04-0.33,0.07c-0.82,0.23-1.64,0.67-2.51,0.15 c-0.33-0.19-0.88,0.08-1.2-0.31c-0.29-0.35-0.74-0.29-1.05-0.61c-0.21-0.2-0.67-0.14-1.02-0.19c-0.35-0.06-0.72-0.08-1.06-0.18 c-0.74-0.24-1.47-0.47-2.17-0.81c-0.57-0.25-1.11-0.55-1.69-0.76c-0.68-0.22-1.37-0.45-2.04-0.71l-1.72-0.66 c-0.57-0.24-1.12-0.51-1.68-0.76c-0.57-0.27-1.19-0.46-1.76-0.75c-1.01-0.54-2.05-1.05-3.03-1.64c-0.36-0.22-0.75-0.39-1.11-0.61 c-0.36-0.22-0.77-0.4-1.01-0.72c-0.38-0.55-0.88-0.97-1.31-1.46c-0.74-0.82-1.23-1.84-2.21-2.46c-1.13-0.75-2.13-1.71-2.97-2.79 c-0.44-0.59-0.9-1.16-1.39-1.71c-0.2-0.24-0.56-0.34-0.82-0.53c-0.47-0.37-0.96-0.72-1.38-1.14c-0.64-0.65-1.53-1.07-1.98-1.92 c-0.73-1.31-1.46-2.61-2.1-3.95c-0.31-0.64-0.54-1.32-0.81-1.99c-0.06-0.14-0.13-0.28-0.25-0.36c-0.74-0.54-1.07-1.37-1.48-2.13 c-0.21-0.39-0.24-0.88-0.25-1.35c-0.01-0.46,0.29-0.67,0.79-0.56c0.51,0.07,0.88,0.19,1.13,0.67c0.31,0.58,0.73,1.11,1.39,1.49 c0.61,0.37,1.26,0.77,1.75,1.23c0.9,0.81,1.56,1.82,2.36,2.71c0.24,0.28,0.46,0.57,0.76,0.79c1.6,1.23,3.05,2.53,4.45,3.87 c0.25,0.25,0.44,0.56,0.72,0.78c0.48,0.36,1,0.67,1.51,0.99c0.21,0.12,0.45,0.21,0.61,0.37c0.4,0.4,0.76,0.84,1.13,1.27l0.13-0.12 c0.79,0.93,1.56,1.92,2.4,2.83c0.58,0.66,1.2,1.29,1.95,1.77c0.44,0.3,0.86,0.61,1.29,0.92c0.44,0.3,0.89,0.56,1.35,0.82 c0.55,0.28,1.05,0.63,1.58,0.95c0.94,0.61,1.94,1.16,2.96,1.63c0.45,0.23,0.93,0.47,1.29,0.86c0.49,0.58,1.13,0.86,1.77,1.13 c0.65,0.24,1.31,0.48,1.99,0.62c0.29,0.07,0.61,0.07,0.91,0.01c0.92-0.2,1.72-0.01,2.54,0.34c0.12,0.06,0.29,0.11,0.4,0.04 c0.78-0.47,1.49-0.18,2.23-0.12c0.58,0.02,1.19,0.03,1.73,0.27c0.61,0.25,1.24,0.21,1.87,0.45c0.58,0.25,1.3,0.03,1.95-0.01 c0.35-0.02,0.7-0.13,1.05-0.08c0.94,0.04,1.84-0.26,2.74-0.44c0.87-0.15,1.73-0.43,2.65,0.3c0.43,0.34,0.93,0.17,1.34-0.11 c0.09-0.06,0.16-0.2,0.26-0.22c1-0.19,1.97-0.53,2.94-0.83c0.59-0.2,1.18-0.38,1.75-0.6c0.57-0.24,1.11-0.57,1.61-0.98 c0.69-0.56,1.38-1.09,2.1-1.55c0.72-0.47,1.42-0.99,2.18-1.39c0.12-0.07,0.24-0.17,0.37-0.16c0.46,0.04,0.73-0.26,0.89-0.65 c0.15-0.37,0.42-0.51,0.69-0.67c0.47-0.29,0.86-0.77,1.37-0.95c0.82-0.3,1.43-1.03,2.38-1.07c0.17-0.01,0.33-0.04,0.5-0.02 c0.31,0.02,0.6,0.13,0.75-0.3c0.08-0.24,0.5-0.25,0.78-0.34c0.47-0.16,0.89-0.37,1.27-0.73c0.43-0.41,0.95-0.79,1.53-0.93 c0.73-0.17,1.15-0.74,1.69-1.14c0.66-0.46,1.39-0.87,1.77-1.68c0.06-0.13,0.28-0.15,0.44-0.18c0.45-0.08,0.9-0.16,1.37-0.19 c0.19-0.01,0.43,0.07,0.64,0.17c0.3,0.13,0.6,0.31,0.9,0.47C137.96,246.31,138.44,247.72,137.55,248.68z M222.57,230.81 c-0.33-0.07-0.66-0.15-0.99-0.2c-0.22-0.03-0.47-0.05-0.64,0.02c-0.42,0.15-0.81,0.34-1.2,0.53c-0.14,0.07-0.33,0.15-0.35,0.29 c-0.08,0.85-0.63,1.42-1.08,2.02c-0.37,0.51-0.55,1.17-1.17,1.51c-0.49,0.28-0.84,0.77-1.1,1.27c-0.23,0.43-0.54,0.74-0.92,1.01 c-0.22,0.16-0.6,0.29-0.6,0.53c0,0.44-0.28,0.44-0.57,0.5c-0.16,0.03-0.3,0.11-0.45,0.16c-0.85,0.3-1.17,1.14-1.82,1.65 c-0.4,0.31-0.61,0.84-0.92,1.27c-0.18,0.25-0.38,0.45-0.39,0.83c-0.01,0.4-0.16,0.75-0.59,0.85c-0.12,0.03-0.2,0.16-0.28,0.25 c-0.54,0.59-1.03,1.23-1.49,1.92c-0.46,0.67-0.93,1.33-1.35,2.06c-0.63,1.04-1.51,1.81-2.45,2.49c-0.75,0.59-1.55,1.12-2.32,1.69 c-0.07,0.06-0.09,0.2-0.15,0.29c-0.27,0.39-0.65,0.69-1.16,0.5c-1.08-0.41-1.75,0.1-2.43,0.59c-0.74,0.45-1.43,1-2.27,1.25 c-0.31,0.09-0.57,0.34-0.87,0.48c-0.56,0.23-1.11,0.66-1.72,0.61c-0.65-0.07-1.15,0.31-1.78,0.26c-0.56-0.05-1.1,0.12-1.62,0.29 c-0.66,0.22-1.37,0.27-1.89,0.93c-0.07,0.1-0.24,0.11-0.36,0.09c-0.85-0.12-1.59,0.14-2.32,0.6c-0.24,0.16-0.52,0.27-0.8,0.29 c-0.65,0.04-1.29,0.19-1.94,0.16c-0.65-0.03-1.3-0.13-1.92-0.43c-0.44-0.2-0.93-0.26-1.4-0.33c-1.04-0.13-2.1-0.15-3.11-0.45 c-0.56-0.16-1.12-0.19-1.69-0.29c-0.96-0.18-1.92-0.38-2.86-0.67c-0.79-0.23-1.55-0.5-2.26-0.94l-1.5-0.85l-1.45-0.92l-0.08,0.15 c-0.47-0.23-0.91-0.52-1.38-0.76c-0.19-0.1-0.43-0.09-0.65-0.13c-0.55-0.1-1.11-0.2-1.64-0.38c-0.31-0.1-0.57-0.34-0.87-0.47 c-1.64-0.75-3.31-1.46-5.11-2.05c-0.33-0.11-0.61-0.3-0.91-0.47c-0.97-0.56-1.85-1.27-2.89-1.72c-0.57-0.26-1.28-0.42-1.95-0.57 c-0.71-0.14-1.24-0.49-1.68-0.93c-0.36-0.36-0.73-0.35-1.23-0.26c-0.5,0.05-0.73,0.34-0.6,0.76c0.13,0.44,0.29,0.88,0.59,1.17 c0.59,0.57,1.11,1.24,1.95,1.5c0.13,0.04,0.24,0.15,0.33,0.26c0.42,0.53,0.82,1.08,1.28,1.58c0.95,1.04,1.99,1.99,3.02,2.97 c0.66,0.62,1.58,0.75,2.36,1.12c0.52,0.23,1.05,0.42,1.59,0.6c0.29,0.1,0.64,0.07,0.9,0.21c0.61,0.33,1.18,0.72,1.75,1.12 c1.09,0.68,2.26,1.27,3.52,1.55c1.05,0.28,1.83,0.99,2.73,1.52c0.52,0.32,1.11,0.53,1.63,0.88c0.32,0.22,0.74,0.25,1.13,0.34 c0.39,0.08,0.79,0.12,1.19,0.16c1.09,0.13,2.14,0.38,3.23,0.43c0.6,0.04,1.21,0.04,1.8,0.09c1.16,0.08,2.32,0.07,3.48,0.1 c0.68-0.03,1.36-0.11,2.04-0.1c0.58,0,1.16,0.12,1.74,0.1c0.72,0,1.46,0.02,2.19-0.01c0.34-0.01,0.66-0.11,0.99-0.21 c0.32-0.09,0.69-0.35,0.95-0.22c0.39,0.2,0.76-0.01,1.14,0.22c0.42,0.25,0.81-0.16,1.16-0.12c0.92,0.11,1.49-0.55,2.13-1.03 c0.09-0.07,0.2-0.21,0.27-0.18c0.54,0.26,0.83-0.23,1.15-0.47c0.6-0.41,1.19-0.59,1.93-0.46c0.31,0.05,0.69,0.07,0.93-0.09 c0.62-0.39,1.29-0.74,1.72-1.41c0.14-0.22,0.39-0.33,0.6-0.47c1.25-0.73,2.39-1.63,3.52-2.5c0.85-0.63,1.62-1.29,2.74-1.42 c0.13-0.02,0.26-0.09,0.36-0.17c0.56-0.39,1.1-0.81,1.68-1.18c0.74-0.55,1.49-1.09,2.25-1.61c0.57-0.4,1.25-0.69,1.76-1.16 c0.62-0.61,1.19-1.3,1.65-2.04c0.34-0.54,0.55-1.15,1.06-1.56c0.42-0.32,0.61-0.89,0.85-1.38c0.38-0.79,1.25-1.18,1.42-2.11 c0.01-0.05,0.05-0.11,0.09-0.13c0.52-0.17,0.6-0.78,1.1-0.99c0.42-0.19,0.78-0.47,1.21-0.66c0.3-0.14,0.62-0.2,0.78-0.54 c0.11-0.25,0.43-0.37,0.66-0.54c0.49-0.38,0.75-1,1.45-1.18c0.16-0.6,0.57-1.05,0.76-1.61c0.27-0.83,0.63-1.52,1.41-1.97 c0.39-0.22,0.65-0.64,0.83-1.05C224.96,232.3,224.07,231.13,222.57,230.81z M451.64,241.48c-0.6,3.89-0.82,7.46-1.1,11.31 c-0.11,1.3-0.28,2.67-0.46,4.03c-0.22,1.36-0.44,2.71-0.56,4.03c-0.99,2.58-1.46,5.57-2.39,8.28c-0.4,1.26-0.94,2.55-1.26,3.74 c-0.42,1.64-0.96,2.76-1.59,4.05c-0.43,0.91-0.84,1.85-1.26,2.8c-0.44,0.93-0.89,1.86-1.34,2.76c-0.51,1.03-0.93,2.11-1.37,3.18 c-0.44,1.07-0.85,2.15-1.46,3.12c-0.11,0.18-0.23,0.47-0.3,0.68c-1.08,3.62-3.35,7.13-5.04,10.61c-1.05,2.18-2.17,4.44-3.53,6.45 c-1.69,2.55-2.99,4.87-4.53,7.28c-2.16,3.29-4.64,6.52-7.32,9.55c-0.53,0.61-1.1,1.19-1.66,1.78l-1.1,1.11 c-0.48,0.48-0.96,0.93-1.44,1.37c-1.87,1.38-4.06,5.02-5.16,1.1c-0.87-1.46-1.79-2.9-2.61-4.35l-1.52-2.93 c-0.52-0.94-0.93-1.93-1.4-2.9c-0.45-0.97-0.93-1.94-1.33-2.93c-1.25-2.9-2.45-5.82-3.48-8.79c-0.2-0.57-0.41-1.2-0.53-1.74 c-0.94-4.57-2.3-9.08-3.51-13.72c-1.62-6.3-2.8-12.72-3.71-19.16c-0.06-0.37-0.11-0.75-0.16-1.14c-0.24,0.76-0.46,1.52-0.71,2.27 c-1.64,4.94-3.74,9.72-6.09,14.36c-0.59,1.21-1.22,2.39-1.87,3.57l-0.96,1.77l-1.03,1.73c-2.5,4.16-5.3,8.14-8.33,11.94l-1.66,2.09 l-1.72,2.04c-1.17,1.32-2.38,2.74-3.64,3.81c-2.04,1.79-4.11,3.68-6.23,5.36c-1.81,1.44-3.7,2.76-5.64,4.07 c-0.73,0.51-1.61,1.08-2.39,1.62c-0.81,0.5-1.61,1-2.43,1.51l-1.23,0.76c-0.23-0.35-0.45-0.77-0.67-1.14 c-0.46-0.77-0.91-1.55-1.38-2.33c-0.56-0.93-1.12-1.86-1.68-2.8l-0.42-0.71l-0.27-0.51l-0.51-0.96c-0.66-1.29-1.36-2.57-1.97-3.9 l-1.78-4.01c-0.54-1.36-1.06-2.73-1.57-4.1c-1.05-2.97-2.02-5.99-2.92-9.01c-0.42-1.28-0.91-2.52-1.35-3.83 c-0.41-1.19-0.74-2.4-1.07-3.62c-0.34-1.22-0.67-2.44-0.93-3.68c-0.9-3.8-1.78-7.5-2.09-11.55c-0.39-6.37-0.4-12.79,0.21-19.13 c0.26-3.05,0.76-6.04,1.29-9.04c0.11-0.61,0.22-1.31,0.25-1.89c0.2-3.62,1.09-7.3,2.04-10.89c0.48-1.79,1.22-3.6,2-5.22 c0.37-0.77,0.67-1.16,0.88-1.24c0.2-0.06,0.26,0.29,0.26,0.88c0,1.27-0.11,2.44-0.76,4.69c-0.78,2.74-1.33,5.61-1.5,8.49 c-0.13,2.73-0.28,5.74-0.43,8.61c-0.26,5.13-0.49,10.51-0.23,15.77c0.05,1.6,0.18,3.24,0.36,4.78c0.58,4.25,1.32,8.49,2.22,12.71 c0.91,4.22,2.06,8.4,3.35,12.54c0.52,1.5,0.87,3.1,1.46,4.55c0.2,0.5,0.41,0.99,0.61,1.48c0.09-0.06,0.17-0.14,0.3-0.15 c0.13-0.02,0.31,0.05,0.35-0.07c0.06-0.16,0.25-0.06,0.42,0.02c0.23,0.1,0.42,0.11,0.63,0.22c0.24,0.13,0.24-0.29,0.49-0.1 c0.02,0.02,0.04,0,0.04-0.04c0.07-0.58,0.47-0.36,0.66-0.68c0.12-0.21,0.26-0.47,0.44-0.48c0.23-0.01,0.36-0.33,0.56-0.53 c0.26-0.26,0.57-0.43,0.85-0.47c0.24-0.04,0.48,0.13,0.71,0.17c0.3,0.07,0.59,0.13,0.89,0.16c0.22,0.02,0.43,0.01,0.65,0.02 c0.04,0,0.09,0.01,0.12,0.08c0.25,0.55,0.56,0.49,0.9,0.4c0.46-0.14,0.91-0.2,1.38-0.29c0.08-0.02,0.16,0.01,0.26-0.12 c0.3-0.38,0.52-0.31,0.77-0.4c0.1-0.04,0.16,0.13,0.2,0.3c0.09,0.41,0.25,0.5,0.5,0.39c0.14-0.06,0.37-0.4,0.38,0.01 c0,0.05,0.08-0.04,0.12-0.07c0.3-0.21,0.66-0.61,0.79-0.19c0.05,0.16,0.3-0.13,0.28,0.22c-0.01,0.31,0.15,0.22,0.15,0.51 c0,0.19,0.18,0.05,0.28,0.06c0.1,0.01,0.22-0.02,0.3,0.04c0.18,0.12,0.34,0.28,0.51,0.43c0.13,0.12,0.24,0.28,0.39,0.36 c0.17,0.09,0.38,0.11,0.57,0.17c0.33,0.1,0.65,0.21,0.98,0.3c0.17,0.05,0.37,0.05,0.55,0.1c0.32,0.08,0.63,0.18,0.95,0.28 c0.12,0.04,0.26,0.02,0.38,0.06c0.12,0.04,0.27,0.02,0.3,0.19c0.05,0.27,0.2,0.38,0.29,0.58c0.15,0.33,0.17,0.84,0.54,0.89 c0.44,0.04,0.79,0.3,1.02,0.66c0.13,0.19,0.26,0.4,0.43,0.54c0.07,0.06,0.29-0.02,0.41-0.01c0.22,0.03,0.45,0.1,0.65,0.18 c0.3,0.13,0.82,0.1,0.96,0.48c0.1,0.28,0.22,0.55,0.33,0.88c0.06,0.18,0.12,0.36,0.17,0.56c0.38-0.4,0.77-0.8,1.14-1.21 c3.19-3.54,6.24-7.24,8.9-11.19c1.56-2.33,3.04-4.65,4.5-7.06c2.66-4.34,4.87-8.99,6.82-13.71c0.82-2.15,1.73-4.4,2.54-6.39 c1-2.3,1.78-4.7,2.42-7.16c-0.08-0.81-0.15-1.62-0.23-2.42c-0.11-1.25-0.05-2.77,0.09-3.99c0.28-2.89,0.31-5.7,0.14-8.81 c-0.08-1.72-0.44-3.59,0.01-5.53c0.06-0.25-0.02-0.9-0.04-1.36c-0.14-3.34-0.46-6.48,0.29-10.33c0.03-0.17,0.06-0.33,0.09-0.54 l6.86,0.2c0.02,1.42,0.34,3.21,0.1,4.64c-0.21,1.45-0.13,3.26-0.41,4.82c-0.19,1.04,0.01,2.88-0.09,4.37 c-0.07,1.5-0.06,3.01-0.22,4.5l-0.63,4.83l-0.88,4.79c-0.14,0.79-0.33,1.58-0.53,2.36c0.03,0.43,0.06,0.87,0.09,1.29 c0.1,1.6,0.31,3.2,0.39,4.77c0.22,4.24,0.84,8.35,1.55,12.47c0.68,3.92,1.47,7.94,1.37,11.54c-0.09,1.7,0.56,3.91,1.24,5.87 c0.16,0.43,0.39,0.81,0.51,1.24c0.96,3.5,2.04,6.96,3.3,10.35c-0.06-0.19-0.08-0.34-0.05-0.44c0.04-0.15,0.13-0.25,0.3-0.16 c0.35,0.19,0.45-0.02,0.49-0.39c0.03-0.25,0.19-0.28,0.21-0.59c0.32,0.31,0.38,0.05,0.58,0.09c0.09,0.02,0.23,0.14,0.26,0.04 c0.04-0.13,0.18,0.02,0.31,0.12c0.18,0.14,0.31,0.17,0.48,0.31c0.2,0.16,0.18-0.22,0.38-0.03c0.02,0.02,0.03,0,0.03-0.03 c0-0.57,0.34-0.31,0.44-0.64c0.07-0.21,0.13-0.48,0.28-0.48c0.18,0,0.24-0.34,0.35-0.54c0.16-0.28,0.36-0.46,0.58-0.56 c0.18-0.09,0.4,0.07,0.59,0.09c0.26,0.02,0.51,0.03,0.75,0.01c0.18-0.02,0.36-0.08,0.54-0.09c0.03,0,0.07,0,0.11,0.06 c0.31,0.51,0.55,0.39,0.83,0.22c0.37-0.23,0.75-0.35,1.14-0.53c0.07-0.03,0.14-0.02,0.21-0.16c0.21-0.43,0.42-0.41,0.62-0.53 c0.08-0.05,0.16,0.1,0.21,0.27c0.13,0.4,0.28,0.46,0.49,0.3c0.12-0.09,0.29-0.46,0.34-0.06c0.01,0.05,0.06-0.05,0.1-0.09 c0.24-0.24,0.53-0.69,0.68-0.29c0.06,0.15,0.26-0.17,0.28,0.17c0.02,0.31,0.15,0.2,0.18,0.48c0.02,0.19,0.17,0.02,0.26,0.01 c0.09-0.01,0.19-0.05,0.27,0c0.17,0.1,0.32,0.23,0.48,0.36c0.13,0.1,0.23,0.24,0.37,0.3c0.16,0.06,0.35,0.05,0.52,0.09 c0.29,0.06,0.58,0.12,0.88,0.17c0.15,0.03,0.33-0.01,0.49,0.01c0.28,0.05,0.55,0.1,0.83,0.15c0.1,0.02,0.23-0.02,0.34,0 c0.1,0.02,0.24-0.01,0.27,0.13c0.05,0.24,0.17,0.33,0.25,0.51c0.13,0.3,0.15,0.77,0.47,0.74c0.39-0.04,0.67,0.12,0.87,0.4 c0.11,0.15,0.22,0.29,0.36,0.38c0.06,0.04,0.24-0.1,0.34-0.12c0.18-0.03,0.37-0.06,0.53-0.05c0.24,0.02,0.64-0.19,0.75,0.04 c0.17,0.36,0.38,0.66,0.54,1.01c0.07,0.17,0.1,0.39,0.16,0.58c0.01,0.04,0.04,0.07,0.1,0.04c0.18-0.08,0.29-0.07,0.38-0.03 c0.93-1.17,1.61-2.37,2.03-3.48c0.49-1.25,1.22-2.39,1.94-3.65c1.25-2.14,2.32-4.43,3.53-6.52c1.97-3.39,3.4-7.09,5.28-10.45 c0.33-0.59,0.66-1.23,1-1.77c0.58-1.01,1.11-1.77,1.41-3.3c0.18-0.83,0.89-2.32,1.4-3.5c0.43-1,0.79-2,1.12-3.02 c0.33-1.02,0.67-2.06,0.92-3.15c0.29-1.27,0.61-2.6,0.97-3.9c0.32-1.31,0.65-2.61,1.04-3.81c0.91-3.02,1.21-5.95,1.64-8.92 c0.55-3.5,1.03-7.19,0.8-10.65c-0.04-0.54,0.15-1.4,0.24-2.06c0.24-1.82,0.52-3.65,0.79-5.41c0.09-0.73,0.3-1.36,0.49-1.88 c0.28-0.75,0.59-1.37,0.89-2.03c1.35-3.02,2.81-1.09,3.12,4.55C451.93,237.23,451.95,239.56,451.64,241.48z M360.44,310.91 c-0.22-0.07-0.43-0.13-0.56-0.17c-0.43-0.13-0.53-0.34-0.82-0.49c-0.08-0.04-0.13-0.11-0.27-0.1c-0.75,0.02-1.22-0.05-1.68-0.2 c-0.08-0.03-0.09-0.14-0.19-0.15c-0.16-0.01-0.39,0.05-0.59,0.08c-0.08,0.01-0.19,0.07-0.23,0.03c-0.09-0.09-0.16-0.21-0.25-0.32 l-0.1,0.14c-0.13-0.32-0.26-0.63-0.4-0.97c-0.1-0.24-0.22-0.45-0.43-0.54c-0.24-0.11-0.43-0.32-0.69-0.39 c-0.16-0.04-0.3-0.11-0.4-0.24c-0.19-0.25-0.48-0.33-0.71-0.52c-0.1-0.09-0.21-0.17-0.23-0.42c-0.06-0.71-0.47-0.71-0.8-0.84 c-0.07-0.03-0.18,0.01-0.29,0.11c-0.36,0.3-0.57,0.27-0.69-0.04c-0.02-0.05-0.05-0.08-0.11-0.01c-0.36,0.48-0.49,0.28-0.68,0.25 c-0.15-0.02-0.31-0.04-0.38-0.27c-0.09-0.26-0.28-0.17-0.36-0.48c-0.07-0.29-0.31-0.13-0.48-0.15c-0.09-0.01-0.2,0.07-0.28,0 c-0.2-0.18-0.48-0.03-0.72,0.02c-0.24,0.04-0.46,0.11-0.51-0.8c-0.02-0.43-0.17-0.37-0.32-0.19c-0.03,0.04-0.07,0.15-0.1,0.15 c-0.26,0-0.51-0.02-0.77,0.02c-0.31,0.04-0.62,0.05-0.91,0.47c-0.39,0.61-0.71,1.04-1,1.24c-0.02,0.02-0.04,0.07-0.07,0.01 c-0.11-0.21-0.16-0.04-0.15,0.26c0.01,0.29-0.03,0.31-0.07,0.36c-0.06,0.09-0.09,0.31-0.17,0.26c-0.12-0.07-0.09,0.29-0.31-0.05 c-0.04-0.06-0.07-0.1-0.12-0.17c-0.09-0.14-0.21-0.32-0.11-0.05c0.06,0.15-0.07-0.02-0.13-0.07c-0.1-0.08-0.14-0.07-0.12,0.04 c0.04,0.14,0.02,0.18-0.11,0.08c-0.19-0.13-0.03,0.11-0.06,0.13c-0.01,0.05-0.12,0.06,0.24,0.32c0.05,0.04-0.03,0-0.09-0.03 c-0.17-0.07-0.35-0.13-0.58-0.2c-0.1-0.03-0.29-0.1-0.48-0.17c-0.15-0.05-0.32-0.11-0.48-0.16l0.91,1.93 c0.42,0.96,1,1.85,1.41,2.81c0.99,2.35,2.16,4.69,3.23,6.95l0.16-0.06l0.78,1.71c0.07,0.13,0.14,0.35,0.22,0.41l0.26-0.13 l0.56-0.31l0.15-0.09c0.06-0.04,0.07-0.04,0.21-0.13l0.85-0.59l1.67-1.22c1.11-0.83,2.2-1.68,3.28-2.55 C357.11,314,358.8,312.49,360.44,310.91z M421.73,310.22c0.05-0.08,0.11-0.16,0.16-0.23c-0.07,0.03-0.13,0.04-0.23,0.1 c-0.33,0.2-0.66,0.37-0.89,0.44c-0.41,0.11-0.62-0.04-0.92-0.07c-0.09-0.01-0.16-0.05-0.29,0c-0.69,0.25-1.19,0.25-1.64,0.21 c-0.08-0.01-0.1-0.12-0.19-0.11c-0.16,0.02-0.36,0.11-0.54,0.17c-0.07,0.02-0.17,0.09-0.21,0.07c-0.09-0.07-0.16-0.18-0.25-0.27 l-0.09,0.15c-0.12-0.28-0.26-0.55-0.38-0.86c-0.09-0.22-0.2-0.39-0.38-0.45c-0.21-0.07-0.37-0.23-0.59-0.27 c-0.13-0.02-0.25-0.07-0.34-0.18c-0.17-0.2-0.4-0.24-0.59-0.39c-0.09-0.07-0.18-0.13-0.2-0.38c-0.06-0.68-0.41-0.59-0.68-0.69 c-0.06-0.02-0.14,0.04-0.24,0.15c-0.28,0.34-0.45,0.37-0.56,0.08c-0.02-0.04-0.05-0.07-0.09,0.01c-0.26,0.53-0.38,0.36-0.53,0.36 c-0.12-0.01-0.24,0-0.32-0.21c-0.09-0.23-0.23-0.1-0.33-0.4c-0.09-0.27-0.26-0.08-0.39-0.07c-0.07,0-0.15,0.1-0.22,0.05 c-0.18-0.13-0.38,0.07-0.56,0.15c-0.18,0.09-0.34,0.18-0.52-0.7c-0.08-0.41-0.19-0.33-0.28-0.12c-0.02,0.05-0.03,0.17-0.05,0.17 c-0.21,0.05-0.42,0.06-0.62,0.14c-0.24,0.11-0.49,0.16-0.66,0.63c-0.22,0.63-0.42,1.14-0.67,1.36c-0.02,0.02-0.03,0.07-0.07,0.02 c-0.13-0.2-0.15-0.02-0.12,0.27c0.03,0.28-0.02,0.3-0.06,0.37c-0.07,0.1-0.09,0.34-0.2,0.31c-0.18-0.06-0.19,0.33-0.47,0 c-0.05-0.06-0.09-0.09-0.15-0.17c-0.1-0.14-0.22-0.33-0.17-0.04c0.03,0.16-0.11,0-0.18-0.04c-0.12-0.07-0.21-0.06-0.25,0.08 c-0.04,0.16-0.12,0.26-0.29,0.13c-0.22-0.16-0.2,0.14-0.31,0.21c-0.12,0.08-0.3,0.08-0.19,0.55c0.02,0.07-0.06,0-0.12-0.04 c-0.16-0.13-0.32-0.25-0.51-0.42c-0.08-0.07-0.21-0.23-0.33-0.39c-0.17-0.23-0.36-0.48-0.55-0.72c-0.52-0.68-0.97-1.41-1.22-1.97 c0.28,0.75,0.56,1.5,0.86,2.24c0.49,1.29,1.04,2.56,1.61,3.81l0.84,1.88l0.92,1.84c0.61,1.23,1.25,2.44,1.96,3.6l1.04,1.72 c0.24,0.37,0.48,0.64,0.7,0.92l0.44,0.52l0.2,0.23l0.1,0.11c0.03,0.02,0.06,0.12,0.11,0.03c0.36-0.42,0.66-0.81,0.93-1.17 c0.19-0.35,1.78-2.17,2.88-3.58C417.23,316.41,419.5,313.35,421.73,310.22z M89.08,243.97c0.06,0.01,0.21-0.23,0.19,0.01 c-0.02,0.19,0.05,0.16,0.15,0.06c0.08-0.09,0.11-0.04,0.11,0.08c0,0.07-0.04,0.27,0.03,0.13c0.13-0.26,0.07-0.05,0.03,0.11 c-0.02,0.09-0.03,0.14-0.04,0.21c-0.08,0.4,0.13,0.09,0.16,0.22c0.02,0.08,0.15-0.1,0.22-0.15c0.04-0.03,0.07-0.03,0.2-0.29 c0.13-0.26,0.22-0.4,0.17-0.18c-0.01,0.06,0.02,0.02,0.03,0.01c0.2-0.09,0.49-0.43,0.84-0.94c0.26-0.37,0.36-0.34,0.49-0.37 c0.1-0.03,0.19,0.01,0.28,0c0.01,0,0.06-0.11,0.08-0.15c0.11-0.17,0.18-0.23,0.06,0.17c-0.26,0.86-0.15,0.78-0.04,0.72 c0.11-0.06,0.26-0.22,0.29-0.07c0.01,0.05,0.08-0.03,0.11-0.03c0.06,0,0.2-0.18,0.15,0.08c-0.05,0.28,0.05,0.17,0.03,0.39 c-0.03,0.2,0.03,0.19,0.09,0.19c0.07,0,0.08,0.16,0.35-0.36c0.04-0.07,0.05-0.05,0.04-0.01c-0.02,0.26,0.07,0.24,0.29-0.12 c0.07-0.12,0.13-0.18,0.15-0.17c0.11,0.05,0.29-0.07,0.17,0.56c-0.04,0.22-0.01,0.26,0.02,0.31c0.07,0.1,0.18,0.09,0.23,0.25 c0.03,0.08,0.08,0.09,0.14,0.08c0.11-0.02,0.17,0.08,0.26,0.09c0.08,0.01,0.12,0.13,0.13,0.3c0.02,0.24,0.06,0.43,0.1,0.65 c0.02-0.05,0.04-0.11,0.06-0.16c0.03,0.05,0.06,0.13,0.1,0.15c0.02,0.01,0.08-0.09,0.12-0.13c0.1-0.12,0.22-0.27,0.3-0.35 c0.05-0.05,0.05,0.04,0.09,0.02c0.23-0.12,0.49-0.34,0.87-0.84c0.07-0.09,0.1-0.09,0.15-0.12c0.15-0.1,0.25-0.07,0.47-0.36 c0.12-0.16,0.3-0.46,0.48-0.77c0.19-0.33,0.29-0.43,0.34-0.42c0.04,0.01,0.17-0.24,0.34-0.64c0.17-0.37,0.3-0.71,0.34-0.89 c0.04-0.2,0.08-0.39,0.04-0.39c-0.07-0.01-0.09-0.15-0.29,0.18c-0.03,0.05-0.04,0.04-0.04,0.02c-0.01-0.12-0.01-0.29-0.03-0.39 c-0.04-0.21-0.11-0.38-0.15-0.6c-0.03-0.14-0.24,0.21-0.35,0.29c-0.07,0.06-0.16,0.15-0.25,0.25c-0.05,0.06-0.15,0.24-0.17,0.23 c-0.06-0.02-0.09-0.09-0.12-0.18c-0.05-0.16-0.16-0.19-0.34-0.03c-0.15,0.13-0.08-0.27-0.09-0.49c0-0.13-0.05-0.16-0.02-0.36 c0.02-0.12-0.05-0.06-0.09-0.04c-0.04,0.01-0.1,0.08-0.15,0.1c-0.11,0.04-0.22,0.06-0.33,0.11c-0.06,0.02-0.14,0.09-0.2,0.11 c-0.12,0.03-0.22,0.03-0.33,0.05c-0.06,0.01-0.14,0.05-0.19,0.02c-0.04-0.03-0.05-0.14-0.07-0.21c-0.03-0.09-0.05-0.19-0.09-0.26 c-0.02-0.03-0.07,0.03-0.11,0.04c-0.04,0.02-0.14,0.18-0.09,0.01c0.07-0.26-0.01-0.14,0.07-0.43c0.09-0.32-0.07,0-0.05-0.14 c0.06-0.35-0.17,0.08-0.34,0.33c-0.02,0.03-0.07,0.13-0.06,0.08c0.11-0.37-0.07-0.02-0.14,0.06c-0.12,0.15-0.16,0.09-0.07-0.28 c0.04-0.16,0.06-0.3,0.02-0.25c-0.11,0.12-0.17,0.09-0.38,0.48c-0.07,0.12-0.09,0.11-0.12,0.13c-0.18,0.13-0.35,0.23-0.54,0.38 c-0.14,0.11-0.26,0.18-0.15-0.35c0.01-0.06,0-0.07-0.01-0.07c-0.06-0.01-0.13,0-0.18-0.03c-0.07-0.05-0.13-0.11-0.18-0.2 c-0.04-0.07-0.03-0.25-0.1-0.24c-0.09,0.01-0.2,0.1-0.36,0.29c-0.11,0.14-0.27,0.41-0.31,0.35c-0.03-0.05-0.16,0.15-0.27,0.3 c-0.17,0.23-0.11-0.13-0.37,0.34c-0.01,0.03-0.03,0.04-0.02,0.02c0.05-0.25-0.12,0.08-0.08-0.14c0.03-0.19,0.03-0.29,0.07-0.49 c0.03-0.14,0.08-0.33,0.01-0.25c-0.05,0.06-0.02-0.1-0.02-0.16c0-0.14-0.14,0.04-0.03-0.36c-0.15,0.24-0.18,0.17-0.3,0.34 c-0.18,0.25-0.29,0.35-0.23,0.01c0.03-0.17-0.03-0.14-0.11-0.06c-0.21,0.23-0.76,1.55-1.21,2.85c-0.1,0.29-0.2,0.58-0.29,0.85 c-0.06,0.19-0.13,0.38-0.15,0.48c-0.06,0.24-0.09,0.43-0.13,0.62c-0.01,0.07-0.03,0.17,0,0.1 C88.98,243.85,89.01,243.95,89.08,243.97z M185.62,244.58c0.04,0.19,0.08,0.39,0.11,0.49c0.08,0.23,0.16,0.41,0.24,0.59 c0.03,0.06,0.07,0.16,0.08,0.09c0.04-0.47,0.16-0.4,0.25-0.42c0.08-0.02,0.11-0.32,0.23-0.1c0.1,0.17,0.17,0.1,0.21-0.04 c0.04-0.12,0.1-0.1,0.18,0c0.05,0.06,0.13,0.25,0.12,0.09c-0.02-0.29,0.05-0.09,0.11,0.07c0.04,0.09,0.06,0.13,0.1,0.19 c0.19,0.37,0.21-0.01,0.34,0.08c0.08,0.05,0.09-0.18,0.14-0.26c0.03-0.05,0.06-0.07,0.02-0.35c-0.04-0.29-0.03-0.46,0.06-0.26 c0.03,0.06,0.03,0.01,0.04-0.01c0.15-0.19,0.22-0.66,0.23-1.29c0.01-0.46,0.13-0.5,0.23-0.61c0.08-0.09,0.18-0.12,0.27-0.19 c0.01-0.01-0.02-0.12-0.02-0.17c-0.01-0.21,0.01-0.3,0.17,0.09c0.34,0.83,0.4,0.69,0.46,0.58c0.06-0.12,0.09-0.34,0.22-0.25 c0.05,0.03,0.05-0.08,0.08-0.1c0.06-0.04,0.06-0.27,0.2-0.04c0.15,0.24,0.17,0.08,0.3,0.27c0.12,0.17,0.17,0.12,0.22,0.08 c0.06-0.05,0.19,0.06,0.07-0.51c-0.02-0.08,0.01-0.07,0.03-0.04c0.17,0.2,0.24,0.13,0.18-0.29c-0.02-0.14-0.02-0.22,0.01-0.23 c0.14-0.04,0.21-0.26,0.56,0.28c0.12,0.19,0.19,0.2,0.25,0.21c0.14,0.02,0.23-0.06,0.39,0.01c0.09,0.04,0.14,0,0.19-0.06 c0.08-0.1,0.21-0.07,0.31-0.13c0.08-0.05,0.2,0,0.35,0.1c0.21,0.14,0.4,0.24,0.6,0.36l-0.07-0.16c0.07,0.01,0.16,0.03,0.22,0.01 c0.02-0.01,0-0.12,0-0.18c0-0.16-0.02-0.35-0.01-0.48c0.01-0.07,0.08-0.01,0.1-0.06c0.11-0.27,0.17-0.63,0.07-1.26 c-0.02-0.11,0.01-0.14,0.02-0.2c0.04-0.19,0.14-0.26,0.07-0.61c-0.04-0.2-0.15-0.53-0.29-0.87c-0.15-0.36-0.17-0.49-0.13-0.53 c0.03-0.03-0.1-0.27-0.31-0.65c-0.21-0.35-0.4-0.65-0.53-0.8c-0.13-0.15-0.25-0.3-0.27-0.29c-0.04,0.04-0.14-0.04,0.01,0.31 c0.02,0.06,0.01,0.05-0.01,0.04c-0.09-0.07-0.22-0.19-0.3-0.24c-0.18-0.11-0.32-0.18-0.5-0.3c-0.11-0.08,0.01,0.31,0.01,0.44 c0,0.09,0.01,0.22,0.03,0.35c0.01,0.07,0.08,0.27,0.06,0.28c-0.05,0.03-0.13,0-0.21-0.04c-0.15-0.07-0.24-0.01-0.25,0.23 c-0.01,0.2-0.25-0.13-0.41-0.28c-0.09-0.09-0.14-0.08-0.27-0.24c-0.07-0.1-0.07-0.01-0.09,0.03c-0.02,0.04-0.02,0.13-0.04,0.17 c-0.06,0.11-0.11,0.2-0.17,0.31c-0.03,0.06-0.04,0.17-0.08,0.22c-0.07,0.1-0.15,0.18-0.22,0.26c-0.04,0.05-0.08,0.13-0.14,0.14 c-0.05,0.01-0.13-0.07-0.2-0.11c-0.08-0.05-0.17-0.11-0.25-0.13c-0.03-0.01-0.04,0.07-0.05,0.1c-0.02,0.04,0.01,0.23-0.06,0.07 c-0.12-0.24-0.1-0.1-0.23-0.37c-0.14-0.3-0.06,0.05-0.13-0.07c-0.18-0.31-0.08,0.18-0.05,0.47c0,0.04,0.03,0.15,0.01,0.1 c-0.16-0.35-0.07,0.03-0.07,0.14c0,0.19-0.07,0.17-0.24-0.17c-0.07-0.14-0.14-0.27-0.15-0.21c-0.01,0.17-0.07,0.18,0,0.61 c0.02,0.14,0,0.14-0.01,0.18c-0.07,0.21-0.14,0.4-0.21,0.64c-0.05,0.17-0.11,0.3-0.35-0.18c-0.03-0.06-0.04-0.06-0.05-0.05 c-0.06,0.03-0.1,0.08-0.17,0.09c-0.09,0-0.18-0.01-0.27-0.05c-0.07-0.03-0.18-0.19-0.23-0.13c-0.06,0.06-0.11,0.2-0.12,0.45 c-0.01,0.18,0.01,0.49-0.06,0.47c-0.05-0.02-0.05,0.21-0.06,0.4c-0.01,0.29-0.17-0.04-0.13,0.5c0,0.03,0,0.05-0.01,0.02 c-0.1-0.24-0.07,0.13-0.16-0.07c-0.08-0.18-0.14-0.26-0.22-0.44c-0.05-0.13-0.12-0.32-0.13-0.21c-0.01,0.08-0.06-0.07-0.1-0.13 c-0.07-0.11-0.09,0.11-0.21-0.29c0,0.28-0.06,0.24-0.07,0.45c-0.02,0.3-0.07,0.45-0.19,0.12c-0.06-0.16-0.09-0.11-0.11,0 c-0.06,0.3,0.04,1.73,0.27,3.09C185.52,243.99,185.57,244.3,185.62,244.58z" fill="#fd6c49"/></g><g id="change5_2"><path d="M131.46,76.01c0.04,1.14,0.02,2.43-0.2,3.48c-0.54,2.13-0.67,4.11-0.61,6.27c0.06,1.47-0.37,3.02-0.33,4.51 c-0.68,1.41-0.75,3.11-1.32,4.62c-0.24,0.7-0.59,1.41-0.69,2.09c-0.15,0.93-0.47,1.56-0.87,2.27c-0.55,1-1.01,2.08-1.55,3.07 c-0.31,0.57-0.48,1.19-0.67,1.81c-0.22,0.6-0.45,1.21-0.82,1.73c-0.07,0.1-0.12,0.27-0.14,0.39c-0.18,1.05-0.55,2.1-1.02,3.1 c-0.51,0.99-1.06,1.96-1.45,2.98c-0.44,1.3-1.04,2.59-1.83,3.72c-0.49,0.71-0.88,1.42-1.24,2.13c-0.42,0.68-0.82,1.36-1.25,2.05 c-1.14,1.95-2.73,3.66-4.3,5.35c-0.66,0.64-1.41,1.2-2.14,1.77c-0.75,0.55-1.44,1.17-2.24,1.65l-3.06,2.03l-3.22,1.76 c-0.77,0.46-1.63,0.76-2.44,1.15c-0.83,0.35-1.63,0.79-2.48,1.07c-0.33,0.11-0.69,0.23-1.01,0.27c-1.35,0.15-2.62,0.53-3.95,0.76 c-1.32,0.26-2.61,0.71-3.96,0.92l-2.74,0.52c-0.92,0.11-1.85,0.18-2.78,0.27l-1.4,0.13c-0.47,0.02-0.93,0.01-1.4,0.02l-2.81,0.01 c-0.65-0.03-1.35-0.14-1.92-0.06c-0.89,0.1-1.83,0.12-2.76,0.02c-0.93-0.13-1.87-0.27-2.79-0.4c-0.36-0.05-0.75-0.15-1.13-0.28 c-0.37-0.16-0.73-0.35-1.04-0.52c-1.49-0.84-3.03-1.3-4.74-1.83c-0.95-0.29-2.14-0.24-2.98-1.11c-0.11-0.11-0.49-0.17-0.75-0.25 c-0.92-0.29-1.86-0.51-2.78-0.85c-0.89-0.39-1.79-0.87-2.65-1.58c-0.33-0.28-0.81-0.47-1.25-0.73c-0.44-0.27-0.88-0.56-1.16-0.96 c-0.51-0.72-1.43-1.19-2-1.92c-0.35-0.52-1.28-1.02-1.95-1.54c-0.66-0.54-1.42-0.98-2-1.6c-1.28-1.33-2.63-2.6-3.75-4.06 c-0.93-1.15-1.86-2.28-2.7-3.49c-0.51-0.69-1.04-1.37-1.57-2.05c-0.54-0.67-0.98-1.42-1.47-2.13l-1.21-1.85 c-0.41-0.61-0.72-1.28-1.09-1.92c-0.69-1.29-1.46-2.57-2.02-3.91c-0.61-1.37-1.37-2.68-1.88-4.1c-1.05-2.52-1.89-5.13-2.64-7.77 l-0.79-2.92c-0.24-0.97-0.44-2.01-0.47-2.95c-0.07-1.54-0.14-3.13-0.16-4.66c-0.02-1.31,0.17-2.61,0.23-3.92 c0.08-1.31,0.25-2.63,0.21-4.02c0.08-3.26,0.48-6.61,1.43-9.79c0.21-0.87,0.51-1.71,0.77-2.56c0.26-0.85,0.52-1.71,0.82-2.54 c0.24-0.72,0.28-1.5,0.48-2.25c0.41-1.35,0.77-2.75,1.31-4.07c0.39-1.03,0.71-2.08,1.13-3.09c0.39-1.03,0.84-2.04,1.45-3 c1.91-3.05,3.97-5.99,6.24-8.74c1.08-1.33,2.26-2.55,3.44-3.77c0.24-0.25,0.5-0.55,0.67-0.83c1.03-1.77,2.56-3.23,4.03-4.7 c0.73-0.73,1.65-1.34,2.54-1.86c0.42-0.24,0.72-0.32,0.89-0.25c0.17,0.08,0.15,0.34,0.05,0.7c-0.22,0.77-0.51,1.39-1.44,2.3 c-1.13,1.11-2.17,2.35-2.95,3.78c-0.75,1.35-1.56,2.84-2.41,4.18c-1.51,2.41-3.25,4.81-4.67,7.34c-0.46,0.76-0.89,1.55-1.24,2.33 c-1.9,4.34-3.59,8.77-4.91,13.3c-0.26,0.82-0.59,1.65-0.75,2.49c-0.32,1.41-0.44,2.84-0.61,4.25c-0.08,0.56-0.04,1.14-0.14,1.69 l-0.38,2.04l-0.28,2.05l0.17,0.04c-0.14,0.73-0.24,1.48-0.31,2.22l-0.24,2.24l-0.1,2.25l-0.06,1.13l0.02,1.13 c-0.02,2.14,0.2,4.28,0.58,6.42c0.3,1.26,0.53,2.54,0.84,3.8c0.36,1.25,0.69,2.51,1.11,3.74c0.57,1.42,1.03,2.85,1.57,4.29 c0.51,1.29,1,2.61,1.62,3.86c0.65,1.23,1.25,2.49,1.91,3.71c0.64,1.08,1.32,2.2,1.76,3.32c0.72,1.51,1.63,2.96,2.69,4.29l1.69,1.92 c0.29,0.31,0.56,0.64,0.87,0.95l0.93,0.88c0.52,0.51,1.13,0.98,1.72,1.35c0.88,0.57,1.8,1.09,2.61,1.74c0.41,0.32,0.81,0.65,1.21,1 c0.42,0.32,0.83,0.66,1.23,1.01c0.24,0.21,0.58,0.47,0.83,0.54c0.43,0.12,0.84,0.29,1.24,0.49c0.41,0.19,0.82,0.37,1.22,0.58 c0.81,0.42,1.59,0.92,2.38,1.36c1.31,0.6,2.66,1.25,3.83,1.99c0.67,0.38,1.38,0.67,2.09,0.98c0.71,0.31,1.42,0.63,2.13,0.96 c1.3,0.66,3.02,0.99,4.6,1.24c0.85,0.14,1.71,0.29,2.54,0.42c1.12,0.2,2.25,0.33,3.37,0.42c1.12-0.01,2.25-0.02,3.37-0.03 c2.14-0.13,4.3-0.3,6.29,0.27c0.47,0.15,1.02,0.16,1.58,0.09c0.56-0.06,1.12-0.31,1.65-0.52c0.23-0.1,0.43-0.27,0.67-0.32l1.8-0.44 l1.76-0.6l1.75-0.6c0.57-0.24,1.12-0.51,1.68-0.77l2.03-0.95l1.91-1.16c0.62-0.41,1.28-0.75,1.84-1.25 c0.57-0.48,1.13-0.97,1.66-1.48c2.86-2.85,5.51-5.89,7.86-9.25c0.19-0.26,0.38-0.58,0.6-0.75c0.81-0.6,1.12-1.48,1.29-2.24 c0.15-0.74,0.53-1.35,0.92-2.01c0.66-1.14,1.03-2.47,1.72-3.56c0.27-0.45,0.53-0.9,0.75-1.38l0.58-1.47 c0.39-0.97,0.81-1.92,1.41-2.8c0.21-0.31,0.36-0.66,0.56-0.95c0.36-0.53,0.72-0.92,0.71-1.8c0-0.48,0.48-1.26,0.76-1.89 c0.47-1.08,0.74-2.2,0.95-3.41c0.24-1.4,0.58-2.91,0.97-4.23c0.53-1.65,0.59-3.27,0.81-4.9c0.22-1.94,0.54-3.95,0.3-5.87 c-0.05-0.3,0.07-0.77,0.16-1.13c0.24-0.99,0.49-1.99,0.78-2.95c0.12-0.4,0.35-0.73,0.56-1.01c0.31-0.4,0.64-0.73,0.96-1.08 C129.97,71.76,131.34,72.88,131.46,76.01z M237.88,58.66c-0.35,0.04-0.7,0.07-1.03,0.14c-0.23,0.05-0.48,0.11-0.64,0.24 c-0.4,0.32-0.76,0.66-1.11,1.01c-0.12,0.13-0.31,0.28-0.31,0.43c0.05,0.98-0.42,1.8-0.83,2.61c-0.34,0.68-0.41,1.49-1.02,2.08 c-0.47,0.47-0.77,1.13-0.99,1.78c-0.19,0.55-0.5,0.99-0.88,1.41c-0.23,0.24-0.62,0.5-0.59,0.77c0.04,0.49-0.26,0.57-0.55,0.73 c-0.17,0.09-0.31,0.21-0.46,0.32c-0.88,0.59-1.14,1.63-1.78,2.4c-0.41,0.46-0.62,1.1-0.93,1.65c-0.18,0.32-0.38,0.61-0.35,1.04 c0.02,0.37-0.06,0.72-0.33,0.97c-0.16-0.25-0.27-0.52-0.43-0.78c-0.16-0.25-0.21-0.55-0.22-0.87c-0.01-0.46-0.06-0.9-0.1-1.35 l-0.15,0.08c-0.06-0.18-0.1-0.38-0.19-0.55c-0.04-0.07-0.17-0.08-0.26-0.12c-0.23-0.1-0.48-0.18-0.67-0.3 c-0.11-0.07-0.1-0.22-0.19-0.3c-0.49-0.46-1.07-0.87-1.91-1.1c-0.15-0.04-0.22-0.14-0.32-0.22c-0.33-0.25-0.54-0.58-1.03-0.71 c-0.27-0.07-0.68-0.07-1.08-0.04c-0.43,0.04-0.65-0.06-0.76-0.22c-0.09-0.13-0.37-0.05-0.78,0.13c-0.38,0.16-0.67,0.37-0.77,0.57 c-0.1,0.21-0.19,0.42-0.12,0.52c0.15,0.2,0.18,0.46,0.62,0.47c0.07,0,0.09,0.05,0.09,0.09c0.01,0.23-0.01,0.49,0.02,0.7 c0.07,0.46,0.18,0.89,0.23,1.35c0.03,0.3,0.51,0.31,0.75,0.48c0.15,0.11,0.34,0.2,0.54,0.28c0.11,0.05,0.33,0.02,0.38,0.1 c0.11,0.18,0.17,0.41,0.21,0.63c0.08,0.41,0.3,0.76,0.68,1.01c0.32,0.21,0.12,0.68,0.1,1.06c-0.01,0.22,0.07,0.4-0.01,0.66 c-0.05,0.16,0.09,0.23,0.17,0.32c0.09,0.09,0.22,0.16,0.31,0.25c0.23,0.26,0.46,0.52,0.69,0.79c0.13,0.14,0.31,0.26,0.43,0.41 c0.24,0.29,0.46,0.59,0.69,0.89c0.08,0.11,0.17,0.21,0.25,0.31c-0.19,0.38-0.39,0.76-0.58,1.14c-0.31,0.66-0.72,1.25-1.15,1.82 c-0.45,0.55-0.97,1.03-1.45,1.55c-0.83,0.83-1.63,1.69-2.53,2.44c-0.09,0.07-0.09,0.23-0.16,0.34c-0.28,0.49-0.7,0.92-1.29,0.86 c-1.27-0.15-1.95,0.65-2.76,1.26c-0.82,0.67-1.58,1.44-2.54,1.94c-0.36,0.18-0.62,0.53-0.98,0.73c-0.65,0.39-1.25,0.97-1.97,1.08 c-0.55,0.08-1,0.35-1.48,0.55c-0.06-0.04-0.11-0.08-0.19-0.11c-0.15-0.07-0.25-0.15-0.26-0.25c-0.07-0.45-0.33-0.87,0.2-1.43 c0.19-0.2,0.18-0.38,0.18-0.55c0-0.39-0.11-0.75-0.06-1.15c0.03-0.22-0.02-0.42-0.09-0.62c-0.13-0.34-0.12-0.7-0.21-1.05 c-0.08-0.29-0.04-0.59,0.04-0.9c0.12-0.44,0.2-0.87,0.3-1.31l-0.17,0.03c0-0.19,0.02-0.39-0.02-0.58c-0.01-0.08-0.14-0.13-0.21-0.2 c-0.19-0.16-0.4-0.32-0.55-0.49c-0.09-0.1-0.03-0.23-0.09-0.34c-0.32-0.58-0.75-1.18-1.47-1.65c-0.13-0.07-0.15-0.16-0.2-0.24 c-0.17-0.29-0.12-0.62-0.42-1.07c-0.17-0.25-0.51-0.47-0.91-0.59c-0.42-0.13-0.62-0.22-0.74-0.31c-0.1-0.08-0.4-0.02-0.79,0.08 c-0.37,0.1-0.65,0.22-0.78,0.29c-0.14,0.07-0.29,0.14-0.27,0.15c0.04,0.03-0.03,0.06,0.26,0.09c-0.1,0.02-0.22,0.11-0.32,0.3 c-0.13,0.28-0.24,0.79-0.3,1.2c-0.04,0.22-0.04,0.44-0.06,0.66c-0.01,0.22-0.02,0.36-0.04,0.48c-0.06,0.3,0.39,0.5,0.57,0.75 c0.11,0.16,0.27,0.32,0.43,0.47c0.09,0.08,0.31,0.14,0.33,0.23c0.05,0.22,0.04,0.45,0.01,0.69c-0.04,0.43,0.06,0.84,0.36,1.21 c0.25,0.31-0.08,0.7-0.21,1.06c-0.08,0.21-0.05,0.41-0.2,0.63c-0.09,0.14,0.02,0.25,0.07,0.37c0.06,0.12,0.16,0.22,0.22,0.34 c0.14,0.32,0.27,0.64,0.4,0.96c0.08,0.18,0.2,0.35,0.27,0.53c0.13,0.35,0.24,0.7,0.36,1.05c0.07,0.21,0.17,0.41,0.2,0.62 c0.02,0.18-0.05,0.38-0.07,0.58c-0.03,0.24-0.07,0.48-0.08,0.72c0,0.11,0.09,0.2,0.13,0.3c0.05,0.1,0.26,0.19,0.1,0.3 c-0.24,0.16-0.08,0.26-0.36,0.41c-0.31,0.17,0.07,0.25-0.04,0.38c-0.11,0.13-0.09,0.22-0.01,0.31c-0.08,0.11-0.26,0.18-0.4,0.2 c-1.01,0.19-1.9,0.48-2.68,1.21c-0.26,0.24-0.58,0.4-0.91,0.49c-1.52,0.44-3.07,0.96-4.69,0.59c-0.57-0.15-1.17-0.09-1.75-0.04 c-1.1,0.03-2.2,0.13-3.3,0.06c0.07-0.2,0.2-0.4,0.5-0.58c0.24-0.14,0.29-0.32,0.34-0.5c0.11-0.39,0.12-0.79,0.28-1.17 c0.09-0.21,0.11-0.43,0.1-0.65c-0.02-0.38,0.1-0.74,0.12-1.11c0.02-0.31,0.15-0.61,0.33-0.9c0.26-0.41,0.47-0.84,0.7-1.26 l-0.17-0.02c0.06-0.2,0.14-0.4,0.16-0.6c0.01-0.08-0.09-0.18-0.14-0.26c-0.13-0.22-0.29-0.44-0.38-0.66 c-0.05-0.13,0.04-0.25,0.02-0.38c-0.14-0.7-0.39-1.41-0.96-2.11c-0.1-0.13-0.11-0.25-0.14-0.38c-0.13-0.42-0.13-0.84-0.45-1.24 c-0.18-0.23-0.52-0.47-0.88-0.68c-0.38-0.22-0.5-0.44-0.51-0.65c0-0.17-0.28-0.26-0.71-0.34c-0.41-0.08-0.77-0.07-0.96,0.05 c-0.2,0.12-0.39,0.26-0.39,0.39c0.01,0.26-0.11,0.52,0.26,0.78c0.06,0.04,0.05,0.09,0.03,0.14c-0.12,0.21-0.28,0.42-0.38,0.63 c-0.19,0.44-0.35,0.89-0.57,1.32c-0.14,0.28,0.25,0.57,0.35,0.86c0.07,0.19,0.17,0.37,0.29,0.57c0.06,0.1,0.26,0.22,0.26,0.31 c-0.01,0.23-0.09,0.45-0.19,0.68c-0.17,0.41-0.19,0.84-0.02,1.28c0.14,0.37-0.29,0.66-0.52,0.98c-0.14,0.18-0.17,0.39-0.39,0.56 c-0.13,0.11-0.06,0.25-0.05,0.38c0.01,0.13,0.09,0.27,0.1,0.4c0.03,0.37,0.06,0.72,0.1,1.09c0.02,0.2,0.09,0.41,0.1,0.61 c0.02,0.39,0.02,0.78,0.03,1.17c0,0.23,0.04,0.46,0,0.69c-0.02,0.13-0.09,0.26-0.16,0.39c-0.16-0.02-0.32-0.04-0.49-0.06 c-0.59-0.07-1.18-0.17-1.76-0.28c-0.99-0.13-1.92-0.49-2.84-0.86l-1.89-0.88c-0.62-0.33-1.24-0.62-1.84-0.97l-0.08,0.16l-1.71-0.84 c-0.23-0.11-0.51-0.12-0.78-0.18c-0.66-0.13-1.31-0.3-1.96-0.5c-0.38-0.12-0.69-0.41-1.06-0.58c-0.4-0.19-0.8-0.38-1.2-0.56 c0.02-0.13,0-0.27-0.06-0.45c-0.06-0.16-0.07-0.29-0.01-0.38c0.28-0.41,0.4-0.93,1.19-1.02c0.28-0.03,0.41-0.18,0.53-0.33 c0.27-0.32,0.45-0.7,0.76-0.99c0.17-0.16,0.28-0.36,0.36-0.57c0.14-0.36,0.4-0.66,0.57-1c0.15-0.28,0.39-0.51,0.67-0.71 c0.41-0.28,0.77-0.58,1.15-0.87l-0.15-0.09c0.14-0.16,0.29-0.3,0.39-0.48c0.04-0.07-0.01-0.2-0.02-0.3 c-0.03-0.26-0.08-0.52-0.07-0.76c0.01-0.14,0.14-0.21,0.18-0.33c0.18-0.69,0.26-1.42,0.09-2.3c-0.03-0.16,0.03-0.27,0.05-0.4 c0.08-0.43,0.3-0.79,0.22-1.31c-0.04-0.29-0.21-0.67-0.4-1.05c-0.2-0.39-0.18-0.66-0.06-0.85c0.1-0.16-0.09-0.39-0.4-0.7 c-0.29-0.3-0.6-0.49-0.83-0.48c-0.24,0.01-0.49,0.03-0.56,0.16c-0.15,0.25-0.41,0.44-0.25,0.89c0.03,0.07-0.01,0.11-0.06,0.14 c-0.22,0.14-0.48,0.26-0.69,0.42c-0.42,0.33-0.79,0.7-1.21,1.03c-0.27,0.21-0.07,0.67-0.12,0.99c-0.03,0.21-0.03,0.44-0.01,0.67 c0.01,0.13,0.13,0.32,0.08,0.41c-0.12,0.21-0.29,0.4-0.48,0.57c-0.34,0.32-0.55,0.73-0.58,1.21c-0.03,0.41-0.55,0.51-0.9,0.71 c-0.2,0.12-0.32,0.3-0.59,0.37c-0.17,0.05-0.16,0.21-0.2,0.34c-0.04,0.13-0.03,0.29-0.07,0.42c-0.12,0.35-0.24,0.69-0.36,1.04 c-0.06,0.19-0.08,0.41-0.16,0.6c-0.14,0.36-0.3,0.72-0.46,1.07c-0.09,0.21-0.15,0.43-0.28,0.62c-0.11,0.15-0.3,0.26-0.45,0.39 c-0.19,0.16-0.39,0.32-0.56,0.49c-0.08,0.08-0.08,0.21-0.12,0.32c-0.04,0.11,0.05,0.33-0.14,0.3c-0.29-0.05-0.25,0.14-0.56,0.07 c-0.09-0.02-0.14-0.02-0.17,0.01c-0.05-0.02-0.11-0.05-0.16-0.07c-0.38-0.16-0.72-0.41-1.06-0.64c-1.15-0.73-2.18-1.65-3.38-2.31 c-0.67-0.37-1.46-0.68-2.21-0.94c-0.79-0.27-1.4-0.76-1.9-1.32c-0.41-0.47-0.81-0.52-1.35-0.51c-0.25,0.01-0.47,0.04-0.57,0.18 c-0.1,0.14-0.12,0.33-0.05,0.58c0.15,0.5,0.35,1.04,0.69,1.4c0.67,0.74,1.28,1.56,2.23,1.98c0.15,0.07,0.28,0.21,0.38,0.34 c0.5,0.65,0.98,1.32,1.53,1.93c1.14,1.28,2.39,2.46,3.65,3.65c0.22,0.21,0.46,0.37,0.72,0.52c-0.02,0.11-0.05,0.21-0.07,0.32 c-0.07,0.4-0.18,0.77-0.82,0.8c-0.08,0-0.11,0.05-0.13,0.09c-0.12,0.22-0.21,0.45-0.36,0.66c-0.19,0.28-0.4,0.55-0.62,0.82 c-0.17,0.2-0.46,0.34-0.55,0.58c-0.12,0.31-0.17,0.66-0.11,1.04c0.04,0.28,0.22,0.62,0.07,0.82c-0.12,0.16-0.01,0.44,0.06,0.69 c0.12,0.4-0.35,0.55,0.01,1.05c0.02,0.03,0.02,0.06-0.01,0.06c-0.31,0.06-0.05,0.38-0.32,0.46c-0.24,0.07-0.39,0.19-0.63,0.26 c-0.18,0.05-0.4,0.07-0.36,0.23c0.03,0.12-0.16,0.17-0.25,0.25c-0.2,0.18-0.09,0.48-0.56,0.55c0.18,0.3,0.06,0.51,0.18,0.78 c0.18,0.4,0.21,0.71-0.2,0.93c-0.2,0.11-0.21,0.31-0.15,0.5c0.15,0.54,1.5,1.01,2.9,1.14c0.31,0.03,0.62,0.06,0.91,0.09 c0.2,0.01,0.41,0.03,0.52,0c0.26-0.05,0.48-0.12,0.7-0.19c0.08-0.02,0.19-0.05,0.13-0.11c-0.37-0.36-0.2-0.58-0.14-0.81 c0.05-0.2-0.14-0.49,0.16-0.62c0.24-0.1,0.26-0.31,0.2-0.52c-0.05-0.19,0.05-0.32,0.21-0.42c0.1-0.06,0.33-0.09,0.21-0.2 c-0.22-0.22,0-0.19,0.19-0.2c0.1,0,0.17-0.03,0.25-0.05c0.49-0.08,0.28-0.49,0.5-0.7c0.13-0.13,0.02-0.39,0.04-0.58 c0.01-0.11,0.04-0.21-0.16-0.42c-0.21-0.22-0.3-0.41-0.04-0.43c0.07,0,0.05-0.07,0.06-0.12c0.14-0.57,0.04-1.28-0.19-2.08 c-0.18-0.59,0.05-0.95,0.2-1.36c0.13-0.34,0.32-0.63,0.47-0.96c0.02-0.03-0.07-0.12-0.09-0.18c-0.09-0.24-0.06-0.44,0.36-0.32 c0.77,0.21,0.94,0.01,1.03-0.25c0.14,0.06,0.28,0.11,0.41,0.17c0.35,0.13,0.77,0.12,1.08,0.3c0.73,0.43,1.46,0.86,2.18,1.32 c0.67,0.42,1.39,0.77,2.11,1.09c0.74,0.28,1.49,0.55,2.26,0.72c0.66,0.14,1.23,0.41,1.79,0.71c0.57,0.28,1.12,0.6,1.7,0.88 c0.68,0.3,1.43,0.48,2.11,0.85c0.42,0.22,0.94,0.21,1.42,0.27c0.49,0.05,0.98,0.07,1.47,0.09l1,0.06c0.05,0.05,0.1,0.1,0.18,0.15 c0.13,0.09,0.12,0.18,0.15,0.27c0.15,0.52,0.26,1.03,0.44,1.55c0.13,0.38,0.21,0.74-0.33,1.09c-0.06,0.04-0.07,0.1-0.07,0.15 c0,0.27,0.03,0.53,0.02,0.78c-0.02,0.35-0.06,0.67-0.12,1.01c-0.04,0.25-0.22,0.5-0.18,0.74c0.05,0.3,0.17,0.6,0.41,0.89 c0.18,0.21,0.48,0.4,0.44,0.62c-0.03,0.18,0.2,0.36,0.37,0.54c0.28,0.29-0.08,0.58,0.44,0.87c0.03,0.02,0.04,0.04,0.02,0.06 c-0.26,0.15,0.1,0.34-0.13,0.5c-0.2,0.13-0.3,0.28-0.51,0.4c-0.15,0.09-0.35,0.15-0.26,0.27c0.07,0.09-0.1,0.17-0.17,0.25 c-0.15,0.17,0.04,0.4-0.4,0.5c0.24,0.2,0.16,0.37,0.33,0.57c0.22,0.28,0.31,0.58-0.09,0.68c-0.2,0.05-0.18,0.2-0.13,0.33 c0.16,0.36,1.35,1.21,2.7,1.56c0.3,0.07,0.61,0.15,0.9,0.19c0.2,0.03,0.42,0.05,0.54,0.01c0.31-0.1,0.55-0.22,0.8-0.36 c0.09-0.05,0.22-0.11,0.17-0.2c-0.31-0.52-0.15-0.84-0.07-1.21c0.05-0.3-0.17-0.64,0.11-0.89c0.22-0.21,0.2-0.5,0.1-0.75 c-0.09-0.22-0.04-0.4,0.09-0.59c0.08-0.11,0.29-0.24,0.13-0.33c-0.28-0.16-0.06-0.22,0.11-0.31c0.1-0.05,0.15-0.11,0.22-0.17 c0.41-0.32,0.07-0.69,0.18-1.02c0.07-0.21-0.14-0.43-0.22-0.63c-0.04-0.12-0.06-0.23-0.34-0.34c-0.29-0.11-0.46-0.25-0.24-0.39 c0.06-0.04,0.01-0.1,0-0.15c-0.16-0.62-0.6-1.19-1.21-1.75c-0.44-0.41-0.45-0.82-0.52-1.23c-0.05-0.33-0.04-0.67-0.05-1.02 c0-0.03-0.12-0.07-0.16-0.11c-0.19-0.17-0.26-0.35,0.16-0.45c0.9-0.21,0.82-0.52,0.75-0.83c-0.07-0.32-0.25-0.65-0.1-0.96 c0.05-0.1,0-0.2-0.03-0.31c0.25-0.03,0.51-0.05,0.76-0.06c0.71-0.02,1.41-0.13,2.12-0.2c0.71-0.06,1.41-0.17,2.1-0.3 c0.82-0.14,1.63-0.31,2.43-0.49c0.69-0.14,1.41-0.15,2.1-0.29c0.86-0.17,1.74-0.3,2.59-0.53c0.39-0.11,0.75-0.31,1.13-0.47 c0.37-0.16,0.77-0.5,1.1-0.43c0.49,0.11,0.87-0.23,1.34-0.1c0.27,0.07,0.5-0.04,0.71-0.17c0,0.16-0.06,0.34-0.27,0.54 c-0.05,0.05-0.05,0.1-0.04,0.14c0.06,0.22,0.15,0.44,0.18,0.66c0.05,0.31,0.08,0.62,0.08,0.94c0.01,0.24-0.11,0.51-0.03,0.73 c0.11,0.28,0.3,0.54,0.59,0.76c0.22,0.16,0.56,0.28,0.58,0.51c0.01,0.18,0.28,0.32,0.5,0.45c0.35,0.21,0.09,0.61,0.68,0.72 c0.03,0.01,0.06,0.02,0.04,0.05c-0.2,0.23,0.21,0.29,0.05,0.51c-0.14,0.19-0.18,0.37-0.33,0.56c-0.11,0.14-0.27,0.27-0.14,0.35 c0.09,0.06-0.03,0.19-0.07,0.29c-0.07,0.21,0.19,0.35-0.18,0.61c0.31,0.09,0.3,0.27,0.52,0.38c0.33,0.17,0.51,0.38,0.19,0.65 c-0.15,0.13-0.1,0.25,0.02,0.36c0.3,0.28,1.73,0.48,3.11,0.23c0.3-0.06,0.62-0.12,0.9-0.2c0.19-0.05,0.4-0.12,0.49-0.2 c0.23-0.18,0.41-0.39,0.58-0.59c0.06-0.07,0.15-0.18,0.07-0.22c-0.49-0.3-0.47-0.66-0.54-1c-0.06-0.28-0.4-0.48-0.24-0.81 c0.13-0.26,0-0.5-0.18-0.67c-0.16-0.15-0.17-0.32-0.12-0.52c0.03-0.12,0.19-0.3,0.02-0.31c-0.31-0.03-0.13-0.15,0.01-0.29 c0.08-0.07,0.1-0.14,0.16-0.21c0.3-0.38-0.12-0.53-0.08-0.81c0.02-0.17-0.23-0.26-0.33-0.39c-0.06-0.07-0.1-0.18-0.4-0.2 c-0.31-0.03-0.49-0.1-0.31-0.28c0.05-0.05-0.01-0.09-0.03-0.13c-0.28-0.5-0.82-0.94-1.53-1.33c-0.52-0.29-0.61-0.68-0.77-1.06 c-0.13-0.31-0.2-0.64-0.31-0.95c-0.01-0.03-0.13-0.04-0.18-0.06c-0.23-0.11-0.34-0.25,0.05-0.46c0.67-0.35,0.68-0.59,0.59-0.81 c0.56,0.03,0.82-0.51,1.16-0.8c0.64-0.57,1.31-0.9,2.18-0.95c0.37-0.02,0.8-0.1,1.06-0.32c0.69-0.53,1.41-1.09,1.85-1.89 c0.14-0.26,0.41-0.44,0.64-0.64l1.99-1.69l1.84-1.84c0.88-0.92,1.8-1.75,3.02-2.22c0.15-0.05,0.28-0.17,0.39-0.28 c0.6-0.57,1.17-1.17,1.79-1.73c0.7-0.63,1.34-1.3,2.02-1.96c-0.02,0.05-0.03,0.11-0.07,0.17c-0.08,0.16-0.14,0.34-0.04,0.38 c0.26,0.12,0.39,0.32,0.88,0.26c0.16-0.02,0.2,0.06,0.28,0.11c0.42,0.29,0.81,0.59,1.25,0.85c0.32,0.2,0.6,0.41,0.36,0.98 c-0.03,0.07-0.01,0.11,0.02,0.14c0.14,0.18,0.3,0.33,0.41,0.52c0.16,0.26,0.3,0.53,0.42,0.81c0.09,0.21,0.08,0.5,0.23,0.66 c0.19,0.21,0.46,0.37,0.8,0.46c0.25,0.07,0.61,0.04,0.7,0.24c0.07,0.16,0.35,0.17,0.59,0.22c0.39,0.07,0.24,0.51,0.83,0.43 c0.03,0,0.06,0.01,0.05,0.03c-0.13,0.27,0.27,0.21,0.17,0.46c-0.09,0.22-0.08,0.39-0.18,0.61c-0.07,0.16-0.19,0.33-0.05,0.38 c0.11,0.03,0.02,0.2,0.02,0.3c-0.01,0.23,0.28,0.3,0.02,0.66c0.33,0.01,0.38,0.2,0.64,0.26c0.38,0.08,0.62,0.23,0.45,0.63 c-0.09,0.19,0.03,0.31,0.18,0.38c0.43,0.2,1.78-0.3,2.91-1.12c0.25-0.18,0.51-0.37,0.73-0.55c0.15-0.12,0.32-0.26,0.38-0.36 c0.15-0.23,0.25-0.46,0.35-0.68c0.04-0.08,0.09-0.19,0.01-0.19c-0.54-0.03-0.61-0.33-0.75-0.57c-0.13-0.2-0.49-0.26-0.41-0.59 c0.06-0.27-0.11-0.43-0.32-0.54c-0.19-0.09-0.24-0.25-0.24-0.45c0-0.12,0.11-0.34-0.06-0.31c-0.31,0.05-0.16-0.12-0.07-0.29 c0.05-0.09,0.06-0.16,0.09-0.25c0.18-0.47-0.3-0.53-0.37-0.85c-0.05-0.2-0.34-0.23-0.5-0.35c-0.1-0.07-0.17-0.15-0.46-0.07 c-0.3,0.08-0.51,0.07-0.4-0.17c0.03-0.07-0.04-0.08-0.08-0.11c-0.45-0.39-1.13-0.61-1.93-0.71c-0.59-0.07-0.82-0.4-1.12-0.68 c-0.24-0.23-0.43-0.5-0.65-0.75c-0.02-0.02-0.14,0.02-0.19,0.02c-0.25-0.01-0.41-0.1-0.13-0.43c0.59-0.72,0.33-0.89,0.1-1.08 c-0.25-0.19-0.58-0.32-0.64-0.64c-0.02-0.12-0.18-0.15-0.25-0.24c-0.13-0.16-0.44-0.24-0.32-0.53c0.12-0.32-0.11-0.42-0.03-0.7 c0.07-0.26-0.06-0.41-0.18-0.55c-0.01-0.02-0.02-0.03-0.03-0.05c0.2-0.33,0.4-0.66,0.57-1c0.36-0.67,0.51-1.43,1.02-2.05 c0.4-0.49,0.61-1.16,0.84-1.76c0.39-0.96,1.24-1.69,1.35-2.78c0.01-0.06,0.04-0.14,0.09-0.17c0.53-0.36,0.58-1.05,1.07-1.45 c0.43-0.34,0.79-0.77,1.23-1.11c0.31-0.24,0.65-0.42,0.79-0.85c0.11-0.31,0.42-0.55,0.64-0.82c0.47-0.59,0.66-1.39,1.37-1.81 c0.08-0.74,0.46-1.39,0.59-2.09c0.2-1.02,0.45-1.94,1.2-2.72c0.36-0.39,0.56-0.98,0.67-1.52c0.15-0.75-0.06-1.37-0.51-1.78 C239.34,58.73,238.65,58.58,237.88,58.66z M368.09,426.07c-0.05-0.59-0.29-1.14-0.44-1.72c-0.18-0.56-0.24-1.17-0.32-1.73 c-0.35-0.43-0.64-0.91-0.92-1.4c-0.27-0.49-0.55-0.96-0.93-1.34c-0.54-0.57-1.02-1.13-1.44-1.73c-0.46-0.57-0.9-1.15-1.25-1.86 c-0.18-0.35-0.42-0.69-0.69-1.02c-0.3-0.29-0.63-0.56-0.95-0.81c-1.78-1.35-3.23-0.77-3.38,1.02c-0.04,0.39-0.09,0.78-0.1,1.17 c0,0.27,0.01,0.57,0.12,0.82c0.26,0.61,0.62,1.16,0.83,1.78c0.09,0.22,0.2,0.51,0.36,0.6c0.52,0.31,1.05,0.69,1.38,1.18 c0.35,0.48,0.66,1,0.98,1.5c0.31,0.4,0.5,0.84,0.77,1.25c0.23,0.43,0.52,0.86,0.54,1.39c0.03,0.42,0.12,0.83,0.26,1.24 c0.07,0.2,0.15,0.4,0.23,0.6c0.05,0.2,0.11,0.41,0.17,0.6c0.2,0.68,0.36,1.35,0.2,2.04c-0.06,0.41-0.26,0.92-0.09,1.18 c0.29,0.5-0.01,0.77-0.21,1.11c-0.12,0.19-0.19,0.4-0.28,0.6c-0.07,0.14-0.12,0.28-0.17,0.42c-0.07,0.14-0.13,0.28-0.18,0.43 c-0.1,0.29-0.18,0.59-0.24,0.89c-0.09,0.61-0.3,1.21-0.57,1.78c-0.3,0.71-0.5,1.52-0.83,2.29c-0.18,0.45-0.37,0.86-0.4,1.37 c-0.01,0.54-0.19,1.12-0.72,1.52c-0.14,0.12-0.26,0.33-0.38,0.51c-1.46,2.25-3.09,4.43-4.72,6.7c-0.63,0.79-1.34,1.53-2.1,2.2 c-0.79,0.64-1.6,1.25-2.42,1.87c-1.39,0.95-2.8,1.88-4.28,2.7c-0.14,0.08-0.22,0.26-0.35,0.39c-0.57,0.56-1.3,1.02-2.04,0.91 c-0.78-0.11-1.5,0.02-2.18,0.27c-0.69,0.24-1.36,0.56-2.01,0.9c-1.37,0.73-2.75,1.41-4.26,1.85c-0.55,0.17-1.1,0.42-1.65,0.62 c-1.04,0.35-2.1,0.94-3.13,0.92c-1.11-0.01-2.09,0.44-3.16,0.45c-0.96,0-1.96,0.25-2.92,0.48c-1.22,0.25-2.52,0.3-3.58,1.06 c-0.15,0.12-0.45,0.12-0.67,0.11c-1.48-0.11-2.87,0.17-4.25,0.63c-0.46,0.16-0.97,0.27-1.47,0.3c-1.16,0.09-2.32,0.1-3.48,0.08 c-1.16,0-2.31-0.18-3.42-0.56c-0.78-0.27-1.68-0.32-2.52-0.47l-2.81-0.37c-0.93-0.18-1.85-0.36-2.77-0.58 c-1.02-0.21-1.99-0.51-3.01-0.69c-0.87-0.16-1.71-0.4-2.54-0.68c-0.83-0.27-1.68-0.51-2.48-0.83c-0.67-0.26-1.35-0.51-1.99-0.83 c-0.62-0.34-1.23-0.7-1.83-1.07c-1.62-1.12-3.19-2.27-4.38-3.67l-0.13,0.12c-0.65-0.57-1.09-1.27-1.65-1.88 c-0.19-0.27-0.46-0.48-0.71-0.72c-0.33-0.29-0.59-0.62-0.85-0.96c-0.27-0.34-0.55-0.68-0.74-1.07c-0.25-0.46-0.39-0.97-0.53-1.48 c-0.98-2.69-1.15-5.76-1.02-8.91c0.03-0.57,0.15-1.16,0.3-1.73c0.42-1.89,1.17-3.73,1.71-5.59c0.31-1.03,0.54-2.19,0.76-3.25 c0.22-1.12,0.71-2.13,1.32-3.02c0.5-0.73,0.54-1.24,0.48-1.88c-0.03-0.29-0.1-0.52-0.26-0.58c-0.17-0.06-0.4,0.02-0.67,0.22 c-0.58,0.44-1.17,0.94-1.57,1.54c-0.79,1.2-1.66,2.4-2.01,3.8c-0.06,0.22-0.19,0.46-0.33,0.66c-0.65,1-1.31,1.99-1.87,3.07 c-1.16,2.24-2.1,4.66-2.76,7.25c-0.44,1.65-0.15,3.32-0.01,4.97c0.07,0.55,0.15,1.09,0.24,1.62c0.13,0.54,0.28,1.07,0.43,1.59 c0.14,0.57,0.54,1.07,0.68,1.63c0.15,0.66,0.42,1.29,0.64,1.94c0.2,0.66,0.52,1.26,0.81,1.88c1.13,2.27,2.86,4.23,4.84,5.57 c0.83,0.57,1.59,1.14,2.3,1.79c0.75,0.56,1.47,1.16,2.23,1.71c0.92,0.56,1.92,1.08,2.82,1.68c0.56,0.35,1.28,0.53,1.94,0.75 c0.66,0.24,1.35,0.36,2.02,0.53c0.91,0.22,1.82,0.5,2.73,0.69l2.73,0.54c1.01,0.2,2.04,0.24,3.06,0.4l1.48,0.21l1.48,0.13 c0.99,0.07,1.97,0.2,2.96,0.22c1.16,0.03,2.32,0.03,3.48,0.09c0.98,0.01,1.97,0.11,2.96,0.16c1.23,0.1,2.46,0.04,3.7,0.04 c0.57-0.02,1.14-0.1,1.7-0.21c0.56-0.09,1.23-0.36,1.64-0.23c0.62,0.2,1.29-0.01,1.87,0.22c0.65,0.23,1.38-0.25,1.95-0.2 c0.75,0.05,1.41-0.08,2.02-0.31c0.61-0.25,1.18-0.57,1.77-0.84c0.16-0.07,0.38-0.23,0.49-0.21c0.82,0.22,1.43-0.31,2.04-0.59 c1.11-0.49,2.15-0.71,3.32-0.66c0.49,0.01,1.09-0.03,1.53-0.23c0.57-0.25,1.15-0.5,1.72-0.74c0.56-0.27,1.1-0.6,1.57-1 c0.3-0.26,0.74-0.42,1.13-0.6c2.25-1.07,4.46-2.23,6.57-3.53c0.79-0.45,1.53-0.99,2.33-1.39c0.8-0.41,1.62-0.75,2.5-1.02 c0.21-0.06,0.43-0.19,0.62-0.31c0.5-0.33,1.01-0.65,1.51-0.99l1.47-1.06c1.36-0.9,2.64-1.96,3.95-2.95 c0.94-0.83,2.03-1.51,2.86-2.47c0.52-0.59,1.03-1.2,1.52-1.82c0.45-0.66,0.87-1.34,1.25-2.01c0.58-0.96,0.83-2.06,1.54-3.02 c0.52-0.8,0.75-1.82,1.04-2.72c0.34-1.49,1.29-2.91,1.08-4.48c-0.01-0.09,0.01-0.21,0.05-0.28c0.12-0.2,0.2-0.41,0.26-0.63 c0.04-0.22,0.05-0.45,0.06-0.68c0.02-0.46,0.04-0.91,0.21-1.34c0.07-0.19,0.14-0.39,0.2-0.58l0.1-0.61 c0.07-0.41,0.13-0.82,0.22-1.22c0.07-0.29,0.15-0.56,0.19-0.85c0.01-0.28-0.01-0.58-0.11-0.91 C368.05,427.21,368.12,426.62,368.09,426.07z M476.46,415.14c-0.18-0.49-0.12-1.11-0.26-1.66c-0.13-0.6-0.35-1.19-0.53-1.78 c-0.21-0.58-0.45-1.14-0.5-1.76c-0.68-0.92-1.34-1.93-2.07-2.77c-0.53-0.61-1.15-1.11-1.63-1.71c-0.25-0.29-0.48-0.61-0.71-0.92 c-0.25-0.3-0.48-0.62-0.69-0.97c-0.44-0.68-1.11-1.38-1.84-1.82c-1.96-1.3-3.39-0.66-3.39,1.17c0,0.4-0.03,0.79,0,1.19 c0.02,0.27,0.06,0.58,0.2,0.83l0.52,0.89l0.48,0.92c0.12,0.22,0.26,0.51,0.44,0.6c0.62,0.27,1.08,0.72,1.49,1.2 c0.41,0.49,0.84,0.98,1.14,1.53c0.28,0.44,0.61,0.85,0.93,1.27c0.27,0.44,0.49,0.93,0.63,1.46c0.05,0.22,0.12,0.43,0.19,0.64 c0.05,0.22,0.11,0.44,0.19,0.66c0.15,0.43,0.35,0.86,0.54,1.26c0.23,0.72,0.4,1.43,0.36,2.17c-0.04,0.44-0.2,1-0.02,1.27 c0.36,0.51,0.07,0.82-0.1,1.2c-0.1,0.21-0.16,0.44-0.24,0.66c-0.5,1.22-0.39,2.57-0.9,3.82c-0.26,0.77-0.47,1.63-0.69,2.47 c-0.19,0.47-0.4,0.9-0.37,1.44c0.02,0.29-0.01,0.58-0.1,0.87c-0.11,0.28-0.3,0.53-0.57,0.75c-0.16,0.12-0.25,0.36-0.36,0.55 c-1.44,2.4-2.99,4.8-4.72,7.14c-0.64,0.86-1.41,1.59-2.18,2.32c-0.82,0.67-1.69,1.31-2.54,1.96l-2.23,1.45 c-0.74,0.48-1.54,0.88-2.31,1.33c-0.15,0.09-0.24,0.27-0.38,0.39c-0.61,0.58-1.42,0.99-2.17,0.9c-1.6-0.2-3.02,0.48-4.42,1.13 c-0.73,0.37-1.48,0.67-2.23,0.98c-0.76,0.29-1.51,0.61-2.33,0.77c-0.6,0.12-1.18,0.39-1.77,0.57c-1.1,0.36-2.27,0.84-3.35,0.81 c-1.16-0.02-2.22,0.37-3.35,0.32c-1.01-0.04-2.07,0.21-3.1,0.36c-1.31,0.18-2.67,0.22-3.83,0.92c-0.17,0.1-0.48,0.1-0.71,0.08 c-1.56-0.16-3.04,0.07-4.52,0.48c-0.49,0.15-1.04,0.24-1.56,0.25l-1.84,0.05c-0.61-0.01-1.23-0.02-1.84-0.05 c-1.23-0.07-2.44-0.17-3.62-0.59c-0.83-0.28-1.78-0.37-2.69-0.47c-1.01-0.08-2-0.24-3-0.36c-1-0.14-2-0.24-2.97-0.47 c-1.08-0.25-2.14-0.42-3.23-0.57c-0.92-0.15-1.81-0.38-2.72-0.59c-0.91-0.19-1.79-0.46-2.67-0.73c-1.5-0.38-2.87-1.04-4.21-1.71 c-0.92-0.52-1.8-1.06-2.68-1.61l-1.23-0.9c-0.2-0.15-0.41-0.29-0.61-0.45l-0.55-0.5l-0.12,0.13l-1.05-0.87 c-0.31-0.32-0.62-0.64-0.94-0.95c-0.13-0.12-0.28-0.23-0.44-0.33l-0.42-0.34c-0.34-0.3-0.71-0.59-1.05-0.9 c-0.31-0.34-0.61-0.68-0.91-1.04c-0.35-0.43-0.48-1-0.77-1.48c-1.37-2.7-1.95-5.85-2.04-9.16c-0.04-0.6,0.09-1.22,0.17-1.84 c0.3-2.02,0.97-4,1.44-5.98c0.26-1.11,0.48-2.32,0.66-3.44c0.2-1.18,0.67-2.26,1.27-3.23c0.5-0.8,0.53-1.32,0.46-1.97 c-0.04-0.3-0.1-0.53-0.27-0.58c-0.17-0.05-0.4,0.04-0.68,0.27c-0.58,0.49-1.17,1.06-1.57,1.7c-0.78,1.3-1.63,2.61-1.94,4.1 c-0.05,0.24-0.18,0.5-0.31,0.72c-0.63,1.08-1.25,2.19-1.78,3.36c-1.07,2.45-1.87,5.08-2.3,7.9c-0.13,0.9-0.11,1.78,0.03,2.66 c0.09,0.87,0.33,1.73,0.5,2.6c0.08,0.57,0.3,1.12,0.47,1.67c0.17,0.55,0.37,1.09,0.64,1.61c0.29,0.56,0.62,1.08,0.91,1.61 c0.32,0.63,0.58,1.31,0.94,1.92c0.37,0.61,0.71,1.24,1.1,1.83c1.48,2.2,3.53,3.89,5.67,5.13c0.94,0.45,1.75,1.04,2.56,1.6 c0.82,0.51,1.62,1.07,2.45,1.57c0.99,0.51,2.07,0.94,3.06,1.52c0.6,0.32,1.36,0.45,2.06,0.63c0.71,0.17,1.42,0.34,2.13,0.45 l2.89,0.55c0.96,0.19,1.92,0.27,2.88,0.41c1.06,0.13,2.13,0.24,3.19,0.3l3.07,0.27c1.02,0.09,2.05,0.11,3.08,0.16 c1.2,0.05,2.4,0.09,3.61,0.11c1.03,0.04,2.05,0.16,3.07,0.24c1.28,0.08,2.57,0.11,3.86,0.13c0.59,0,1.19-0.06,1.78-0.15 c0.59-0.07,1.3-0.32,1.73-0.17c0.64,0.22,1.34,0.03,1.95,0.29c0.67,0.29,1.45-0.19,2.05-0.12c1.57,0.16,2.77-0.46,4.04-1 c0.18-0.07,0.42-0.22,0.52-0.19c0.84,0.25,1.51-0.27,2.17-0.49c1.19-0.45,2.29-0.66,3.52-0.55c0.52,0.06,1.15,0.03,1.62-0.17 c1.21-0.52,2.53-0.82,3.56-1.65c0.33-0.26,0.8-0.41,1.22-0.59c1.22-0.48,2.41-1.04,3.6-1.62c1.2-0.54,2.34-1.19,3.48-1.84 c0.85-0.46,1.66-0.96,2.5-1.4c0.84-0.44,1.73-0.76,2.66-1.05c0.22-0.06,0.45-0.2,0.66-0.33c0.54-0.34,1.08-0.68,1.6-1.04l1.56-1.12 l1.07-0.74l1.03-0.8c0.68-0.54,1.4-1.04,2.04-1.64c0.5-0.44,1.02-0.85,1.54-1.28c0.52-0.42,0.97-0.92,1.42-1.42l0.81-0.96 c0.25-0.33,0.48-0.69,0.72-1.04c0.45-0.71,0.93-1.39,1.25-2.16c0.51-1.1,0.85-2.16,1.44-3.29c0.24-0.45,0.46-0.91,0.59-1.41 c0.12-0.51,0.22-1.02,0.32-1.51c0.21-0.79,0.42-1.58,0.63-2.37c0.25-0.78,0.32-1.61,0.18-2.41c-0.02-0.09-0.01-0.22,0.03-0.3 c0.1-0.22,0.16-0.45,0.21-0.68c0.02-0.23,0.01-0.47,0.01-0.71c-0.01-0.48-0.03-0.95,0.11-1.42c0.22-0.82,0.18-1.71,0.33-2.57 C476.64,416.37,476.68,415.82,476.46,415.14z M318.47,451.88l0.09,0.02c0.63,0.16,0.61,0.04,0.77,0.05 c0.09-0.03,0.18-0.02,0.28-0.29c0.11-0.28,0.2-0.43,0.23-0.2c0.01,0.07,0.04,0.02,0.07,0.01c0.29-0.1,0.59-0.48,0.9-1.02 c0.08,0.07,0.17-0.06,0.22,0.32c0.09-0.28,0.18-0.22,0.27-0.41c0.13-0.29,0.25-0.42,0.35-0.07c0.05,0.17,0.12,0.13,0.19,0.02 c0.07-0.1,0.13-0.36,0.19-0.7c0.04-0.03,0.08,0.03,0.08,0.29c0,0.03,0,0.05,0,0.07c-0.02,0.12-0.05,0.26-0.07,0.44 c-0.05,0.41-0.07,0.77-0.05,0.95c0.03,0.2,0.05,0.39,0.09,0.39c0.08-0.01,0.14,0.12,0.27-0.24c0.02-0.06,0.04-0.05,0.05-0.02 c0.06,0.12,0.1,0.28,0.16,0.38c0.12,0.2,0.25,0.35,0.36,0.57c0.07,0.14,0.24-0.24,0.36-0.34c0.08-0.06,0.17-0.17,0.26-0.28 c0.05-0.06,0.13-0.25,0.17-0.25c0.09,0.01,0.16,0.09,0.23,0.18c0.13,0.17,0.31,0.19,0.53,0.02c0.19-0.14,0.23,0.28,0.33,0.51 c0.06,0.13,0.14,0.17,0.18,0.38c0.03,0.13,0.1,0.06,0.17,0.04c0.06-0.01,0.14-0.09,0.2-0.1l0.12-0.03l0.02-0.02l0-0.01l0,0 l0.05-0.23l0.24-0.96c0.01,0.01,0.02,0.01,0.04,0.02c0.05,0.04,0.1,0.06,0.16,0.07c0.03,0,0.07,0.01,0.12,0.01l0.11,0l0.14,0 c0.08,0,0.17-0.01,0.25-0.02l0.12-0.02l0.16-0.04c0.16-0.06,0.43-0.1,0.86-0.51c0.21-0.2,0.45-0.55,0.54-0.99 c0.1-0.43,0.02-0.87-0.09-1.15c-0.21-0.49-0.43-0.66-0.56-0.79c-0.07-0.06-0.13-0.1-0.18-0.13l-0.01-0.01l-0.05-0.03l-0.1-0.06 c-0.07-0.04-0.14-0.07-0.22-0.1c-0.21-0.08-0.14-0.05-0.18-0.06l-0.11-0.03l-0.1-0.02c-0.05-0.01-0.11-0.03-0.14-0.04 c-0.03-0.01-0.06-0.01-0.09-0.02c0.04-0.41,0.08-0.82,0.12-1.1l-0.02,0.03c-0.05,0.04-0.14,0.12-0.21,0.15 c-0.15,0.05-0.31,0.07-0.47,0.1c-0.04,0.01-0.07,0.02-0.11,0.03c-0.04-0.07-0.08-0.14-0.12-0.21l-0.04,0.17 c-0.07-0.06-0.14-0.13-0.22-0.16c0,0,0,0,0,0c-0.09-0.08-0.17-0.18-0.26-0.24c-0.04-0.03-0.1,0.04-0.15,0.06 c-0.05,0.02-0.13,0.2-0.14,0.02c-0.01-0.27-0.09-0.14-0.09-0.45c0-0.34-0.12,0.01-0.14-0.13c-0.07-0.36-0.24,0.11-0.39,0.38 c-0.02,0.04-0.06,0.14-0.06,0.09c-0.01-0.39-0.13-0.01-0.2,0.08c-0.13,0.17-0.2,0.12-0.25-0.27c-0.02-0.16-0.05-0.31-0.1-0.26 c-0.12,0.14-0.23,0.12-0.38,0.54c-0.05,0.13-0.09,0.13-0.12,0.16c-0.22,0.16-0.44,0.29-0.67,0.47c-0.09,0.08-0.18,0.12-0.26,0.06 c0-0.21,0-0.42-0.01-0.61c0-0.19-0.01-0.4-0.03-0.5c-0.04-0.24-0.09-0.44-0.14-0.63c-0.02-0.07-0.04-0.17-0.06-0.1 c-0.14,0.45-0.26,0.36-0.38,0.36c-0.1,0-0.21,0.28-0.31,0.04c-0.07-0.19-0.17-0.14-0.27-0.01c-0.08,0.11-0.15,0.07-0.22-0.04 c-0.04-0.07-0.09-0.27-0.13-0.12c-0.07,0.29-0.09,0.07-0.13-0.1c-0.02-0.09-0.05-0.14-0.07-0.21c-0.08-0.2-0.14-0.22-0.25-0.19 c-0.05,0.01-0.1,0.03-0.15,0.05c-0.08,0.01-0.17,0.02-0.25-0.01c-0.06-0.02-0.32,0-0.46,0.04l-0.06,0.01l-0.11,0.02 c-0.18,0.04-0.37,0.09-0.56,0.17c-0.8,0.27-1.65,1.05-1.99,1.81c-0.09,0.19-0.16,0.37-0.21,0.53c-0.06,0.21-0.13,0.51-0.15,0.84 c-0.06,0.67,0.15,1.65,0.67,2.36C317.41,451.35,318.08,451.73,318.47,451.88z M422.16,438.79c0.12-0.45,0.18-0.36,0.24-0.36 c0.05,0,0.14-0.28,0.17-0.04c0.02,0.19,0.08,0.14,0.14,0.02c0.06-0.1,0.09-0.07,0.11,0.05c0.01,0.07,0.02,0.27,0.05,0.12 c0.07-0.28,0.05-0.07,0.05,0.1c0,0.09,0.01,0.14,0.01,0.21c0.02,0.41,0.14,0.06,0.19,0.18c0.03,0.07,0.11-0.14,0.16-0.2 c0.03-0.04,0.06-0.05,0.12-0.33c0.06-0.29,0.11-0.44,0.12-0.22c0,0.06,0.02,0.02,0.03,0.01c0.16-0.13,0.35-0.54,0.57-1.12 c0.12-0.43,0.19-0.43,0.27-0.49c0.07-0.05,0.13-0.05,0.2-0.08c0.01,0,0.05-0.12,0.06-0.16c0.08-0.19,0.15-0.26,0.04,0.14 c-0.04,0.14-0.07,0.26-0.09,0.35c-0.13,0.49-0.08,0.42-0.02,0.36c0.07-0.07,0.19-0.24,0.18-0.1c-0.01,0.05,0.05-0.04,0.08-0.04 c0.04,0,0.17-0.18,0.07,0.07c-0.12,0.26,0.01,0.16-0.05,0.38c-0.06,0.2,0,0.19,0.06,0.2c0.07,0,0.05,0.16,0.38-0.31 c0.05-0.07,0.05-0.04,0.04-0.01c-0.06,0.25,0.03,0.24,0.29-0.08c0.09-0.11,0.15-0.16,0.17-0.15c0.1,0.07,0.27-0.05,0.09,0.58 c-0.06,0.22-0.01,0.28,0.03,0.34c0.09,0.13,0.24,0.16,0.31,0.34c0.04,0.1,0.12,0.13,0.2,0.14c0.05,0,0.09,0.02,0.14,0.05 c0.08,0.02,0.16,0.05,0.25,0.05c0.13,0,0.17,0.1,0.31,0.27c0.24,0.21,0.3,0.37,0.36,0.54c0-0.02,0.01-0.1,0.02-0.16 c0.01-0.15,0.1-0.32,0.14-0.42c0.03-0.06,0.02,0.02,0.04-0.01c0.07-0.1,0.14-0.21,0.25-0.36c0.1-0.15,0.24-0.33,0.41-0.58 c0.06-0.09,0.09-0.08,0.13-0.11c0.13-0.09,0.2-0.06,0.43-0.31c0.13-0.14,0.35-0.41,0.58-0.69c0.24-0.29,0.37-0.37,0.42-0.34 c0.05,0.02,0.22-0.2,0.49-0.54c0.25-0.33,0.45-0.62,0.52-0.81c0.07-0.19,0.12-0.39,0.07-0.41c-0.1-0.05-0.14-0.22-0.41,0.05 c-0.04,0.04-0.06,0.02-0.06,0c-0.02-0.15-0.02-0.34-0.06-0.47c-0.08-0.27-0.19-0.5-0.28-0.8c-0.05-0.16-0.23,0.03-0.37,0.12 c-0.04,0.03-0.07,0.06-0.1,0.07c-0.11,0.06-0.23,0.17-0.35,0.28c-0.07,0.06-0.17,0.26-0.21,0.25c-0.1-0.01-0.18-0.08-0.25-0.16 c-0.15-0.15-0.57-0.19-0.66,0.01c-0.06,0.08-0.09,0.02-0.12-0.08c-0.04-0.11,0.08-0.25,0.12-0.34c0.1-0.1,0.07-0.12,0.12-0.31 c0.03-0.12,0.01-0.03,0-0.01c-0.01,0.03-0.04,0.11-0.05,0.14l-0.03,0.06c-0.03,0.05-0.05,0.09-0.08,0.14 c-0.02,0.04-0.07,0.12-0.09,0.15c-0.04,0.05-0.08,0.08-0.13,0.12c-0.03,0.02-0.06,0.08-0.11,0.03c-0.03-0.03-0.02-0.14-0.04-0.22 c-0.01-0.09-0.02-0.19-0.05-0.26c-0.01-0.03-0.07,0.02-0.11,0.03c-0.04,0.01-0.16,0.16-0.09,0c0.11-0.24,0.01-0.14,0.13-0.41 c0.14-0.3-0.07-0.01-0.02-0.14c0.11-0.34-0.18,0.06-0.37,0.28c-0.03,0.03-0.09,0.12-0.07,0.07c0.16-0.35-0.06-0.03-0.14,0.05 c-0.12,0.14-0.21,0.05-0.11-0.33c0.04-0.16,0.06-0.31-0.01-0.28c-0.16,0.09-0.26,0.02-0.52,0.38c-0.08,0.11-0.11,0.09-0.16,0.11 c-0.2,0.06-0.39,0.11-0.58,0.2l-0.12,0.08c-0.18,0.13-0.32,0.22-0.32-0.31c0-0.06-0.02-0.07-0.04-0.07c-0.09,0-0.19,0.03-0.28,0 c-0.11-0.03-0.25-0.09-0.33-0.17c-0.05-0.05-0.09-0.24-0.15-0.21c-0.08,0.03-0.17,0.15-0.27,0.37c-0.07,0.16-0.16,0.46-0.21,0.42 c-0.04-0.04-0.11,0.18-0.18,0.35c-0.1,0.27-0.13-0.09-0.27,0.43c-0.01,0.03-0.02,0.04-0.02,0.02c-0.01-0.26-0.1,0.1-0.11-0.12 c-0.02-0.2-0.03-0.29-0.05-0.49c-0.01-0.14,0-0.34-0.05-0.24c-0.03,0.07-0.04-0.09-0.05-0.15c-0.04-0.13-0.12,0.08-0.11-0.34 c-0.08,0.27-0.13,0.21-0.2,0.41c-0.11,0.28-0.19,0.41-0.21,0.07c-0.01-0.17-0.06-0.13-0.11-0.03c-0.14,0.28-0.35,1.69-0.46,3.07 c-0.03,0.3-0.05,0.62-0.07,0.9c-0.01,0.19-0.03,0.4-0.03,0.5c0.01,0.24,0.02,0.44,0.02,0.63 C422.13,438.76,422.14,438.86,422.16,438.79z M427.56,439.52c0.01,0.04-0.04,0.09-0.05,0.09c0.01,0.03,0.02,0.05,0.03,0.08 L427.56,439.52z M427.51,439.61C427.5,439.61,427.5,439.61,427.51,439.61C427.5,439.6,427.5,439.61,427.51,439.61 C427.5,439.61,427.5,439.61,427.51,439.61z M65.93,81.49c0.09,0.37,0.17,0.71,0.52,0.98c0.36,0.28,0.6,0.65,0.5,1.14 c-0.03,0.14,0.07,0.3,0.13,0.44c0.67,1.82,1.81,3.44,3.26,4.66c1.06,0.88,1.79,1.92,2.77,2.8c0.77,0.74,1.61,1.43,2.52,2 c0.09,0.06,0.24,0.02,0.35,0.04c0.53,0.07,1.01,0.24,1.17,0.81c0.19,0.56,0.56,0.93,1,1.19c0.45,0.23,0.97,0.31,1.46,0.4 c0.53,0.06,1.06,0.05,1.58,0.08c0.52-0.01,1.04-0.03,1.56,0.05c0.39,0.03,0.78-0.12,1.16-0.17c0.74-0.06,1.41-0.51,2.11-0.37 c0.74,0.06,1.37-0.29,2.08-0.34c0.63-0.08,1.26-0.37,1.82-0.69c0.68-0.45,1.51-0.68,1.81-1.65c0.04-0.13,0.21-0.23,0.35-0.28 c0.23-0.09,0.45-0.2,0.66-0.32c0.19-0.15,0.37-0.31,0.54-0.48c0.32-0.36,0.61-0.75,0.73-1.25c0.09-0.32,0.24-0.63,0.45-0.88 c0.89-1.23,1.38-2.6,2.39-3.85c0.36-0.45,0.5-1.05,0.65-1.61c0.23-1.26,0.28-2.54,0.29-3.79c0.03-0.7-0.08-1.37-0.23-2.04 c-0.26-1.13-0.5-2.26-0.89-3.35c-0.35-0.89-0.61-1.81-0.91-2.73c-0.4-1.31-0.98-2.56-1.64-3.79l-0.15,0.09 c-0.36-0.53-0.68-1.09-1.12-1.56c-0.17-0.2-0.43-0.32-0.64-0.48c-0.56-0.38-1.15-0.69-1.7-1.06c-0.34-0.2-0.59-0.52-0.92-0.75 c-1.79-1.17-3.93-1.98-6.08-1.86c-0.39,0.03-0.77-0.03-1.15-0.06c-1.24,0.03-2.54,0.01-3.59,0.65c-0.6,0.28-1.09,0.9-1.47,1.39 c-0.36,0.63-0.81,0.94-1.25,1.28c-0.37,0.27-0.4,0.62-0.31,1.09c0.08,0.44,0.34,0.69,0.68,0.7c0.36,0,0.71-0.01,0.94-0.19 c0.5-0.27,1.01-0.45,1.4-0.94c0.06-0.08,0.17-0.12,0.26-0.13c0.23-0.02,0.47,0.03,0.69,0.04c0.22,0,0.44,0.03,0.66,0.08 c0.89,0.08,1.75,0.35,2.56,0.81c0.13,0.07,0.26,0.11,0.4,0.13c0.14,0.04,0.29,0.06,0.44,0.07c0.31,0.02,0.64,0.02,0.93,0.14 c0.2,0.07,0.4,0.12,0.61,0.18l0.62,0.22c0.23,0.08,0.55,0.03,0.73,0.19c0.44,0.35,0.83,0.76,1.17,1.22 c0.66,0.82,1.33,1.63,2.12,2.38c0.66,0.65,0.75,1.59,0.94,2.41c0.1,0.49,0.33,0.94,0.31,1.46c-0.01,0.31,0.21,0.58,0.33,0.86 c0.12,0.29,0.3,0.55,0.42,0.84c0.16,0.4,0.27,0.8,0.41,1.2l0.31,1.22c0.06,0.45,0.23,0.91,0.25,1.36c0.02,0.44,0.07,0.89,0.03,1.32 l-0.03,0.65l-0.1,0.63c-0.04,0.51-0.2,0.98-0.35,1.45c-0.21,0.36-0.43,0.72-0.71,1.03l-0.49,0.58c-0.19,0.17-0.38,0.34-0.55,0.52 c-0.15,0.17-0.26,0.38-0.42,0.56c-0.15,0.18-0.24,0.52-0.47,0.51c-0.37-0.06-0.52,0.22-0.88,0.11c-0.2-0.06-0.3,0.02-0.39,0.13 c-0.12,0.1-0.23,0.23-0.37,0.23c-0.76,0.03-0.97,0.74-1.4,1.23c-0.06,0.07-0.12,0.22-0.18,0.19c-0.46-0.2-0.6,0.28-0.86,0.46 c-0.22,0.17-0.46,0.29-0.71,0.34c-0.25,0.03-0.51-0.03-0.78-0.16c-0.23-0.12-0.48-0.18-0.67-0.12c-0.48,0.19-0.98,0.26-1.48,0.65 c-0.16,0.13-0.37,0.14-0.55,0.15c-1.08,0.07-2.17-0.1-3.29-0.43c-0.4-0.14-0.82-0.27-1.15-0.55c-0.34-0.25-0.62-0.59-0.75-1.08 c-0.03-0.11-0.12-0.19-0.2-0.26c-0.4-0.38-0.84-0.74-1.17-1.2c-0.48-0.61-0.88-1.28-1.22-1.99c-0.12-0.27-0.22-0.55-0.32-0.83 c-0.08-0.29-0.17-0.57-0.31-0.83c-0.33-0.66-0.71-1.31-1.13-1.96c-0.33-0.46-0.73-0.9-0.81-1.49c-0.07-0.47-0.34-0.92-0.59-1.37 c-0.35-0.75-0.05-1.58-0.56-2.33c-0.03-0.04-0.05-0.11-0.02-0.15c0.24-0.45-0.05-0.94,0.2-1.39c0.22-0.38,0.4-0.78,0.65-1.13 c0.17-0.25,0.42-0.43,0.41-0.77c-0.02-0.24,0.2-0.46,0.32-0.69c0.31-0.45,0.25-1.09,0.86-1.37c-0.06-0.55,0.2-1.01,0.29-1.51 c0.08-0.78,0.42-1.43,1.14-1.77c0.38-0.15,0.6-0.51,0.81-0.84c0.56-0.87,0.08-2.35-1.32-2.96c-0.31-0.13-0.63-0.27-0.96-0.36 c-0.23-0.06-0.49-0.1-0.7-0.05c-0.53,0.12-0.98,0.38-1.47,0.63c-0.17,0.09-0.42,0.21-0.46,0.36c-0.24,1.04-0.9,1.78-1.36,2.64 c-0.44,0.7-0.46,1.54-1.03,2.21c-0.38,0.56-0.63,1.3-0.66,2c-0.03,0.6-0.23,1.12-0.41,1.66c-0.12,0.31-0.39,0.72-0.27,0.95 c0.22,0.43,0.01,0.63-0.19,0.92c-0.11,0.16-0.17,0.34-0.25,0.51c-0.46,1-0.11,2.07-0.13,3.09C65.45,80.24,65.76,80.87,65.93,81.49z M81.89,82.3C81.89,82.3,81.89,82.3,81.89,82.3l0.03,0.07C81.97,82.33,81.94,82.31,81.89,82.3z M78.24,78.38 c-0.05,0.09-0.06,0.2-0.13,0.25c-0.06,0.05-0.13,0.09-0.21,0.15c-0.04,0.03-0.01,0,0.06-0.04c0.09-0.05,0.23-0.13,0.29-0.16 c0.07-0.04,0.18-0.09,0.3-0.14c0.06-0.03,0.25-0.11,0.27-0.09c0.03,0.04,0,0.12-0.04,0.2c-0.07,0.15-0.01,0.22,0.22,0.21 c0.19-0.02-0.12,0.26-0.3,0.34c-0.1,0.06-0.11,0.07-0.29,0.15c-0.11,0.05-0.03,0.02,0,0.01c0.01-0.01,0.04-0.01,0.06-0.02 c0.03-0.01,0.06-0.02,0.08-0.03c0.08-0.02,0.14-0.03,0.22-0.04c0.04-0.02,0.14,0,0.19,0.03c0.09,0.06,0.16,0.13,0.23,0.2 c0.04,0.04,0.12,0.07,0.12,0.12c0,0.04-0.08,0.11-0.13,0.17c-0.05,0.07-0.12,0.15-0.15,0.21c-0.01,0.03,0.06,0.03,0.1,0.05 c0.03,0.02,0.23-0.01,0.06,0.06c-0.25,0.1-0.11,0.09-0.39,0.2c-0.31,0.12,0.04,0.05-0.08,0.11c-0.32,0.16,0.17,0.07,0.46,0.04 c0.04,0,0.15-0.03,0.1-0.01c-0.36,0.14,0.02,0.06,0.13,0.06c0.19,0,0.17,0.05-0.18,0.21c-0.15,0.07-0.28,0.13-0.21,0.14 c0.18,0.05,0.2,0.15,0.64,0.09c0.14-0.02,0.15,0.01,0.19,0.03c0.23,0.11,0.42,0.22,0.66,0.29c0.18,0.05,0.3,0.1-0.14,0.48 c-0.05,0.04-0.05,0.06-0.05,0.08l0.03,0.06c0.06,0.04,0.12,0.07,0.15,0.13c0.06,0.09,0.1,0.2,0.13,0.32 c0.02,0.09-0.06,0.26,0.03,0.31c0.11,0.06,0.29,0.07,0.54-0.01c0.18-0.05,0.46-0.21,0.48-0.13c0.01,0.05,0.12-0.02,0.24-0.09l0,0 c0,0,0,0,0,0c0.04-0.02,0.08-0.05,0.12-0.07c0.25-0.14,0.03,0.15,0.47-0.16c0.02-0.02,0.04-0.02,0.02-0.01 c-0.16,0.2,0.14-0.02,0,0.15c-0.09,0.12-0.15,0.21-0.22,0.31c0.6-0.05,1.59-0.19,2.56-0.38c0.3-0.06,0.61-0.12,0.89-0.17 c0.19-0.04,0.39-0.08,0.49-0.11c0.23-0.07,0.42-0.13,0.6-0.19c0.07-0.02,0.16-0.05,0.09-0.05c-0.46,0.01-0.39-0.07-0.41-0.12 c-0.01-0.05-0.3-0.06-0.08-0.15c0.18-0.07,0.11-0.11-0.02-0.14c-0.08-0.02-0.09-0.04-0.05-0.07l-0.76-1.59 c0.01-0.02,0.02-0.04,0.03-0.07c0.03-0.06,0.17-0.22,0.04-0.12c-0.23,0.18-0.08,0.02,0.03-0.11c0.06-0.07,0.09-0.11,0.13-0.17 c0.25-0.32-0.06-0.13-0.02-0.25c0.02-0.08-0.17,0.04-0.25,0.06c-0.05,0.01-0.07,0.01-0.28,0.2c-0.22,0.19-0.35,0.29-0.19,0.14 c0.05-0.04,0.01-0.01,0-0.01c-0.13,0.08-0.5,0.32-1.05,0.61c-0.41,0.21-0.46,0.16-0.57,0.15l-0.03,0c-0.05-0.02-0.07-0.07-0.11-0.1 c0,0-0.11,0.05-0.16,0.06c-0.19,0.07-0.27,0.06,0.1-0.13c0.81-0.41,0.7-0.39,0.6-0.39c-0.1,0-0.3,0.03-0.2-0.05 c0.04-0.03-0.07-0.01-0.08-0.02c-0.03-0.02-0.26-0.02-0.02-0.14c0.25-0.13,0.1-0.13,0.3-0.24c0.18-0.1,0.14-0.14,0.1-0.17 c-0.04-0.05,0.08-0.15-0.49-0.03c-0.08,0.02-0.07,0-0.03-0.02c0.22-0.14,0.15-0.18-0.26-0.13c-0.14,0.02-0.22,0.02-0.22,0 c-0.02-0.1-0.22-0.15,0.35-0.43c0.2-0.1,0.22-0.15,0.24-0.19c0.04-0.1-0.03-0.17,0.07-0.29c0.05-0.08,0.01-0.15-0.04-0.21 c-0.08-0.08-0.07-0.19-0.09-0.29c-0.01-0.02-0.02-0.04-0.03-0.06c-0.06-0.09-0.02-0.22,0.07-0.38c0.11-0.25,0.23-0.38,0.35-0.56 l-0.15,0.08c0.01-0.06,0.05-0.12,0.03-0.16c-0.01-0.02-0.11,0.02-0.17,0.03c-0.15,0.03-0.33,0.07-0.45,0.08 c-0.07,0-0.01-0.06-0.05-0.07c-0.17-0.05-0.4-0.12-0.7-0.09c-0.16,0.02-0.34,0.05-0.55,0.11c-0.11,0.03-0.14,0.01-0.19,0.01 c-0.19,0-0.24-0.06-0.57,0.07c-0.18,0.07-0.49,0.23-0.81,0.4c-0.34,0.18-0.47,0.22-0.5,0.18c-0.03-0.03-0.27,0.12-0.63,0.35 c-0.35,0.22-0.64,0.43-0.77,0.56c-0.15,0.14-0.28,0.27-0.26,0.29c0.05,0.04-0.01,0.16,0.32-0.01c0.05-0.03,0.05-0.01,0.04,0.01 C78.38,78.15,78.28,78.28,78.24,78.38z M82.11,82.75c0.03-0.04,0.07-0.09,0.11-0.14c0.03-0.04,0.04-0.06,0.06-0.09 c-0.1,0.01-0.2,0.01-0.27,0.02L82.11,82.75z M81.77,82.43c-0.16,0.06-0.11,0.09,0,0.1c0.05,0.01,0.14,0.01,0.24,0l-0.09-0.18 C81.89,82.38,81.85,82.4,81.77,82.43z" fill="#f7e6d1"/></g><g id="change1_2"><path d="M493.76,73.8c-0.08,0.94-0.16,1.89-0.23,2.83c-0.05,0.74-0.46,1.56-0.78,2.21c-0.39,0.77-0.69,1.53-1.05,2.3 c-0.34,0.77-0.59,1.6-0.86,2.46c-0.36,0.93-0.52,2.09-1.38,2.91c-0.1,0.11-0.23,0.47-0.34,0.72c-0.42,0.88-0.79,1.78-1.25,2.67 c-0.53,0.83-1.17,1.64-2.03,2.37c-0.59,0.57-1.24,1.5-2.06,1.94c-0.03,0.15-0.06,0.31-0.12,0.47c-0.06,0.18-0.07,0.32,0,0.4 c0.09,0.09,0.09,0.24,0.21,0.31c0.07,0.04,0.12,0.1,0.1,0.2c-0.03,0.18,0.07,0.26,0.07,0.41c0,0.07,0.01,0.13-0.15,0.29 c-0.46,0.45-0.24,0.48-0.17,0.62c0.01,0.03,0.1,0.02,0.23-0.02c0.4-0.12,0.49-0.07,0.32,0.14c-0.03,0.03-0.03,0.06,0.04,0.03 c0.54-0.22,0.45-0.07,0.52-0.02c0.05,0.04,0.11,0.09-0.04,0.24c-0.16,0.16,0,0.15-0.21,0.35c-0.2,0.18,0.03,0.14,0.08,0.19 c0.03,0.03,0.14,0.01,0.11,0.06c-0.06,0.15,0.16,0.13,0.29,0.17c0.12,0.04,0.26,0.06-0.48,0.56c-0.35,0.23-0.25,0.24-0.05,0.18 c0.04-0.01,0.15-0.06,0.16-0.06c0.09,0.07,0.13,0.16,0.24,0.22c0.13,0.07,0.19,0.17,0.63,0.05c0.6-0.16,1.05-0.25,1.26-0.21 c0.02,0,0.07-0.01,0.02,0.03c-0.17,0.15-0.01,0.09,0.25-0.04c0.25-0.13,0.28-0.11,0.33-0.11c0.09,0,0.29-0.08,0.26-0.01 c-0.06,0.11,0.28-0.04-0.02,0.24c-0.05,0.05-0.09,0.08-0.15,0.15c-0.13,0.11-0.3,0.25-0.04,0.1c0.14-0.08-0.01,0.06-0.05,0.12 c-0.07,0.09-0.08,0.13,0.03,0.09c0.13-0.05,0.19-0.05,0.07,0.09c-0.16,0.18,0.09,0.04,0.12,0.07c0.03,0.03,0,0.11,0.36-0.17 c0.06-0.05-0.01,0.03-0.06,0.08c-0.13,0.14-0.26,0.29-0.42,0.46c-0.07,0.07-0.21,0.22-0.34,0.37c-0.2,0.21-0.41,0.43-0.62,0.65 c-0.94,1.02-1.97,2.01-2.29,2.08c-0.12,0.03-0.2,0.01-0.12-0.15c0.18-0.31,0.01-0.29-0.29-0.19c-0.2,0.07-0.21-0.02-0.47,0.09 c0.28-0.32,0.06-0.25,0.11-0.39c0.02-0.06,0.13-0.19,0.05-0.17c-0.11,0.02,0.03-0.12,0.12-0.23c0.13-0.16,0.18-0.25,0.31-0.4 c0.15-0.17-0.19-0.01-0.01-0.2c0.02-0.02,0-0.02-0.03,0c-0.49,0.22-0.25-0.06-0.54,0.01c-0.18,0.05-0.4,0.11-0.41,0.05 c0-0.09-0.3,0.02-0.49,0.05c-0.25,0.04-0.41,0.01-0.5-0.05c-0.07-0.05,0.04-0.21,0.04-0.3c0-0.12-0.01-0.23-0.05-0.33 c-0.03-0.07-0.1-0.12-0.14-0.18c-0.01-0.01-0.01-0.03,0.04-0.07c0.41-0.35,0.26-0.39,0.08-0.42c-0.26-0.03-0.46-0.09-0.7-0.13 c-0.04-0.01-0.05-0.03-0.18,0.02c-0.42,0.15-0.44,0.08-0.62,0.09c-0.07,0,0.04-0.09,0.17-0.2c0.3-0.24,0.31-0.31,0.11-0.28 c-0.11,0.02-0.47,0.17-0.15-0.05c0.04-0.03-0.06,0.01-0.1,0.02c-0.29,0.07-0.75,0.25-0.48,0.01c0.1-0.09-0.23,0.04,0.04-0.15 c0.25-0.17,0.11-0.14,0.33-0.29c0.14-0.1-0.04-0.04-0.08-0.06c-0.04-0.01-0.11-0.01-0.11-0.04c0.01-0.08,0.05-0.18,0.08-0.27 c0.03-0.07,0.09-0.17,0.07-0.22c-0.02-0.06-0.11-0.07-0.16-0.11c-0.1-0.06-0.19-0.12-0.3-0.17c-0.06-0.03-0.16-0.02-0.22-0.03 c-0.11-0.03-0.21-0.06-0.32-0.09c-0.04-0.01-0.13,0.01-0.17,0c-0.04-0.01-0.13,0.01-0.04-0.07c0.14-0.14,0.12-0.19,0.2-0.29 c0.12-0.17,0.4-0.47,0.21-0.43c-0.07,0.02-0.1,0.01-0.14,0.01c-0.62,0.5-1.18,1.07-1.89,1.45l-2.36,1.35l-1.18,0.66 c-0.4,0.2-0.83,0.36-1.25,0.55l-2.02,0.84c-0.67,0.29-1.33,0.57-2.04,0.77c-1.63,0.51-3.2,1.24-4.89,1.55 c-1.43,0.33-2.85,0.7-4.31,0.81l-2.19,0.25c-0.73,0.09-1.46,0.04-2.19,0.07l-2.27,0.05c-0.75-0.02-1.5-0.09-2.25-0.15l-2.04-0.18 l-2-0.37l-2-0.37c-0.66-0.16-1.3-0.35-1.95-0.52c-0.95-0.28-1.94-0.42-2.86-0.77c-0.91-0.33-1.91-0.62-2.71-1.06 c-1.31-0.73-2.65-1.46-3.95-2.18c-2.14-1.35-4.08-2.89-6.39-4.17c-1.4-0.72-2.68-1.62-4-2.49c-1.29-0.91-2.52-1.91-3.73-2.91 c-1.27-1.12-2.55-2.24-3.82-3.36c-0.54-0.48-1.21-0.79-1.81-1.23c-1.1-0.79-2.14-1.65-3.19-2.52c-1.54-1.33-3.22-2.44-4.59-4.04 c0.43,1.32,0.85,2.66,1.23,4c0.51,1.74,1.01,3.5,1.43,5.28c0.09,0.34,0.15,0.72,0.16,1.05c0.05,2.74,0.58,5.43,0.94,8.23 c0.51,3.79,0.53,7.72-0.03,11.65c-0.12,0.68-0.29,1.42-0.29,2.03c-0.08,1.91-0.72,3.93-1.48,5.81c-0.25,0.76-0.87,1.53-1.37,2.12 c-0.59,0.71-1.21,1.36-1.72,2.11c-0.57,0.7-1.09,1.47-1.65,2.27c-0.63,0.87-1.13,2.02-2.3,2.56c-0.15,0.07-0.36,0.43-0.55,0.66 c-1.37,1.55-2.65,3.19-4.86,4.12c-0.42,0.18-0.85,0.51-1.31,0.82c-0.47,0.28-0.96,0.55-1.46,0.63c-0.52,0.09-1.04,0.31-1.58,0.51 c-0.02,0.02-0.02,0.05-0.04,0.07c-0.1,0.14-0.16,0.25-0.11,0.33c0.06,0.08,0.03,0.2,0.12,0.27c0.06,0.04,0.09,0.09,0.04,0.17 c-0.08,0.14,0,0.22-0.03,0.34c-0.01,0.05-0.02,0.11-0.22,0.22c-0.56,0.31-0.35,0.36-0.33,0.47c0.01,0.02,0.09,0.02,0.23,0 c0.41-0.06,0.49,0,0.27,0.14c-0.03,0.02-0.05,0.04,0.03,0.02c0.57-0.11,0.45-0.01,0.49,0.04c0.04,0.04,0.08,0.08-0.1,0.18 c-0.2,0.11-0.04,0.12-0.3,0.25c-0.24,0.12-0.01,0.11,0.02,0.16c0.02,0.02,0.13,0.02,0.09,0.06c-0.1,0.11,0.11,0.12,0.23,0.17 c0.11,0.05,0.23,0.09-0.61,0.38c-0.4,0.14-0.31,0.15-0.11,0.14c0.05,0,0.16-0.03,0.17-0.02c0.06,0.07,0.08,0.14,0.16,0.2 c0.1,0.07,0.13,0.16,0.58,0.14c0.62-0.02,1.07,0,1.25,0.09c0.01,0.01,0.07,0.01,0.01,0.03c-0.21,0.08-0.04,0.07,0.25,0.02 c0.28-0.05,0.3-0.03,0.34-0.02c0.08,0.02,0.3,0.01,0.25,0.07c-0.09,0.09,0.27,0.06-0.1,0.22c-0.07,0.03-0.11,0.05-0.2,0.08 c-0.16,0.06-0.36,0.13-0.08,0.08c0.16-0.03-0.03,0.05-0.09,0.09c-0.1,0.06-0.12,0.1-0.01,0.11c0.13,0,0.2,0.03,0.03,0.11 c-0.21,0.11,0.07,0.07,0.09,0.11c0.02,0.05-0.05,0.11,0.4,0.02c0.07-0.02-0.02,0.02-0.09,0.05c-0.18,0.08-0.35,0.15-0.57,0.25 c-0.09,0.04-0.29,0.11-0.47,0.18c-0.27,0.1-0.56,0.2-0.85,0.31c-1.3,0.47-2.66,0.9-2.97,0.88c-0.11-0.01-0.17-0.04-0.02-0.12 c0.3-0.17,0.15-0.2-0.15-0.18c-0.21,0.01-0.17-0.06-0.45-0.03c0.39-0.16,0.16-0.16,0.27-0.24c0.05-0.04,0.2-0.1,0.12-0.11 c-0.11,0,0.08-0.07,0.21-0.13c0.18-0.09,0.26-0.14,0.44-0.23c0.2-0.09-0.17-0.04,0.07-0.14c0.02-0.01,0.01-0.01-0.02-0.01 c-0.53,0.07-0.21-0.09-0.49-0.08c-0.18,0-0.41,0.02-0.39-0.03c0.03-0.06-0.28-0.03-0.46-0.03c-0.24-0.01-0.38-0.04-0.44-0.1 c-0.05-0.04,0.11-0.14,0.14-0.2c0.04-0.08,0.07-0.16,0.07-0.23c0-0.05-0.05-0.09-0.08-0.14c0-0.01,0-0.02,0.06-0.05 c0.49-0.21,0.37-0.25,0.2-0.29c-0.23-0.06-0.4-0.1-0.61-0.15c-0.04-0.01-0.04-0.03-0.18,0c-0.43,0.07-0.44,0.02-0.6,0.02 c-0.06,0,0.07-0.06,0.22-0.12c0.35-0.15,0.38-0.2,0.19-0.19c-0.1,0-0.49,0.09-0.13-0.05c0.05-0.02-0.06,0-0.1,0.01 c-0.29,0.03-0.77,0.13-0.45-0.02c0.12-0.06-0.23,0.02,0.09-0.1c0.28-0.11,0.14-0.09,0.39-0.19c0.16-0.07-0.03-0.03-0.06-0.04 c-0.03-0.01-0.11-0.01-0.09-0.04c0.03-0.05,0.1-0.12,0.15-0.19c0.04-0.05,0.13-0.12,0.13-0.16c0-0.05-0.08-0.06-0.12-0.09 c-0.07-0.05-0.14-0.09-0.22-0.13c-0.04-0.02-0.14-0.02-0.2-0.03c-0.1-0.03-0.17-0.05-0.26-0.07c-0.03-0.01-0.12,0.01-0.16,0.01 c-0.03-0.01-0.12,0.01-0.01-0.05c0.17-0.1,0.17-0.14,0.27-0.21c0.16-0.12,0.51-0.33,0.32-0.3c-0.21,0.04-0.25,0-0.16-0.08 c0,0.01,0.01-0.01-0.01,0.01c-0.25,0.28-0.18,0.19-0.2,0.19c0,0,0.02-0.04,0.06-0.1c0.05-0.04,0.1-0.08,0.15-0.12 c0.01-0.01-0.01,0.01-0.01,0.01c0.05-0.05,0.08-0.09,0.07-0.11c-0.03,0.01-0.07,0.03-0.1,0.04c-0.04,0.06-0.08,0.13-0.11,0.17 c-0.06,0.04-0.11,0.08-0.15,0.1c-0.09,0.04-0.17,0.07-0.25,0.09l-0.02,0l-0.01,0l0,0h0l0.24-0.2c0.05-0.03,0.09-0.06,0.16-0.09 c0.03-0.01,0.09-0.05,0.14-0.07c-0.06,0.03-0.13,0.05-0.19,0.07l-0.1,0.09c-0.02,0.01-0.05,0.03-0.07,0.04 c0.08-0.06,0.13-0.09,0.17-0.12c-0.36,0.15-0.72,0.29-1.09,0.41c-0.46,0.14-0.9,0.32-1.37,0.43l-1.41,0.31l-2.82,0.59 c-1.51,0.29-3.07,0.32-4.59,0.55c-0.89,0.16-1.8,0.16-2.7,0.22l-2.72,0.15c-1.55-0.03-3.09-0.15-4.64-0.22 c-1.54-0.19-3.06-0.46-4.6-0.69c-1.55-0.38-3.12-0.71-4.66-1.13l-4.08-1.44l-3.93-1.78c-0.93-0.49-1.87-0.95-2.79-1.45 c-0.45-0.25-0.94-0.49-1.39-0.76c-0.44-0.29-0.86-0.58-1.22-0.91c-0.6-0.53-1.24-1.03-1.88-1.52c-0.64-0.49-1.23-1.04-1.82-1.56 c-1-0.9-1.96-1.83-2.88-2.82c-0.93-0.97-1.95-1.88-3-2.82c-1.27-1.08-2.53-2.21-3.67-3.45c-0.58-0.61-1.16-1.23-1.72-1.86 l-1.59-1.96c-1.15-1.4-2.2-2.89-3.34-4.3c-0.49-0.6-1.09-1.1-1.62-1.68c-0.96-1.07-1.92-2.17-2.79-3.32 c-1.39-1.75-2.89-3.34-4.03-5.36c-1.77-3.18-3.48-6.4-5.05-9.66c-0.74-1.57-1.4-3.17-2.08-4.77c-0.14-0.33-0.32-0.69-0.51-0.96 c-1.23-1.67-2.05-3.67-2.91-5.58c-0.43-0.96-0.69-2.05-0.89-3.05c-0.19-0.96,0.11-1.21,0.73-0.74c0.66,0.46,1.16,0.96,1.7,2.19 c0.65,1.49,1.47,2.95,2.51,4.27c1,1.25,2.07,2.64,2.98,4.01c1.66,2.45,3.13,5.17,4.8,7.69c0.5,0.77,0.99,1.58,1.55,2.28 c3.07,3.88,6.11,7.82,9.29,11.65c0.59,0.69,1.11,1.47,1.71,2.14c1.02,1.13,2.17,2.12,3.24,3.17c0.43,0.42,0.93,0.77,1.33,1.21 c1,1.07,1.93,2.2,2.96,3.22l0.14-0.1l1.59,1.75c0.54,0.57,1.11,1.11,1.67,1.67c0.57,0.55,1.11,1.12,1.69,1.65l1.76,1.57 c0.82,0.77,1.7,1.45,2.61,2.11c0.9,0.66,1.8,1.34,2.79,1.87c2.31,1.38,4.68,2.66,7.17,3.6c1.48,0.53,2.9,1.1,4.42,1.53l2.04,0.64 c0.69,0.16,1.4,0.27,2.1,0.4c0.7,0.12,1.4,0.27,2.11,0.38l2.13,0.18c0.64,0.07,1.3,0.13,1.94,0.2c0.65,0.01,1.29,0.05,1.89,0.14 c0.86,0.11,1.73,0.23,2.6,0.22c0.87-0.05,1.74-0.14,2.61-0.25c1.76-0.13,3.45-0.73,5.17-1.13c0.37-0.09,0.74-0.2,1.09-0.33 c0.35-0.17,0.69-0.34,1-0.53c0.95-0.56,1.91-1.03,2.92-1.43c1.01-0.38,1.98-0.85,3.05-1.17c0.31-0.12,0.7-0.31,0.89-0.5 c0.32-0.33,0.67-0.63,1.03-0.9c0.35-0.29,0.72-0.57,1.11-0.82c0.79-0.49,1.55-1.04,2.29-1.58c0.59-0.43,1.13-0.94,1.71-1.39 c0.57-0.46,1.09-0.95,1.67-1.35c0.61-0.48,1.14-1.05,1.67-1.62c0.48-0.61,1.03-1.17,1.56-1.77c0.39-0.4,0.72-0.9,1.03-1.43 c-0.13,0.09-0.3,0.17-0.51,0.22c-0.45,0.12-0.76,0.16-0.92-0.06c-0.2-0.26-0.49-0.48-0.99-0.49c-0.48,0-0.96-0.02-1.3-0.11 c-0.59-0.18-1.04-0.49-1.52-0.75c-0.15-0.07-0.3-0.15-0.49-0.15c-0.53,0-0.98-0.06-1.43-0.1c-0.44-0.05-0.85-0.14-1.27-0.2 c-0.15-0.03-0.26-0.17-0.41-0.17c-0.26-0.01-0.57,0.11-0.84,0.17c-0.11,0.03-0.23,0.1-0.32,0.07c-0.22-0.09-0.43-0.19-0.65-0.28 l-0.05,0.17c-0.44-0.31-0.93-0.57-1.43-0.84c-0.35-0.22-0.74-0.32-1.13-0.34c-0.47-0.03-0.94-0.08-1.42-0.02 c-0.28,0.03-0.55,0.06-0.84,0.01c-0.52-0.09-1.03-0.01-1.55,0.01c-0.24,0-0.48,0.01-0.74-0.18c-0.72-0.48-1.35-0.21-1.97-0.04 c-0.13,0.03-0.26,0.15-0.35,0.31c-0.27,0.49-0.62,0.66-1.08,0.55c-0.07-0.02-0.15-0.01-0.17,0.08c-0.12,0.64-0.5,0.62-0.8,0.78 c-0.24,0.12-0.49,0.25-0.81,0.16c-0.35-0.09-0.56,0.17-0.94,0.04c-0.36-0.12-0.57,0.2-0.82,0.37c-0.14,0.09-0.23,0.26-0.4,0.29 c-0.45,0.09-0.72,0.48-1.02,0.79c-0.3,0.29-0.58,0.59-1.38,0.07c-0.38-0.25-0.53-0.04-0.59,0.25c-0.01,0.06,0.02,0.19-0.01,0.22 c-0.36,0.31-0.72,0.62-1.04,0.95c-0.38,0.43-0.8,0.82-0.87,1.52c-0.04,0.48-0.1,0.92-0.19,1.32c-0.07,0.41-0.17,0.78-0.34,1.1 c-0.03,0.05-0.02,0.13-0.1,0.13c-0.27,0.01-0.22,0.23-0.05,0.5c0.17,0.25,0.11,0.36,0.08,0.48c-0.07,0.21,0.03,0.51-0.13,0.65 c-0.26,0.24-0.1,0.67-0.57,0.79c-0.09,0.02-0.15,0.06-0.26,0.07c-0.19,0.02-0.43,0.01-0.21,0.24c0.12,0.12-0.13,0.17-0.21,0.26 c-0.16,0.14-0.24,0.3-0.19,0.51c0.04,0.24,0.05,0.48-0.16,0.64c-0.27,0.21-0.06,0.5-0.08,0.74c-0.01,0.28-0.12,0.59,0.31,0.88 c0.07,0.04-0.03,0.11-0.09,0.16c-0.18,0.14-0.37,0.29-0.6,0.45c-0.1,0.07-0.3,0.13-0.49,0.19c-0.28,0.08-0.59,0.17-0.89,0.25 c-1.37,0.41-2.79,0.38-3.11-0.32c-0.12-0.24-0.17-0.53-0.01-0.77c0.36-0.47,0.26-0.88,0.01-1.39c-0.18-0.35-0.03-0.68-0.25-1.06 c0.48-0.25,0.31-0.67,0.56-0.97c0.1-0.14,0.31-0.25,0.28-0.42c-0.03-0.23,0.2-0.31,0.38-0.42c0.25-0.16,0.44-0.35,0.71-0.5 c0.31-0.16,0.07-0.55,0.41-0.69c0.03-0.01,0.03-0.05,0.01-0.09c-0.28-0.62,0.28-0.88,0.25-1.41c-0.02-0.34-0.03-0.7,0.15-0.92 c0.24-0.27,0.15-0.72,0.23-1.09c0.11-0.51,0.32-0.98,0.6-1.38c0.24-0.31,0.64-0.47,0.94-0.72c0.39-0.34,0.81-0.63,1.18-0.96 c0.28-0.25,0.54-0.51,0.82-0.75c0.05-0.05,0.12-0.09,0.21-0.08c0.75,0.07,1.11-0.33,1.48-0.77c0.49-0.62,1.07-1.12,1.63-1.69 c0.1-0.09,0.23-0.16,0.26-0.33c0.11-0.55,0.47-0.73,0.74-1.05c0.1-0.13,0.34-0.07,0.54,0.01c0.48,0.2,0.79,0.09,1.05-0.22 c0.14-0.18,0.19-0.63,0.56-0.36c0.05,0.04,0.08-0.09,0.11-0.15c0.26-0.41,0.44-1.01,0.99-0.85c0.21,0.07,0.33-0.34,0.62-0.09 c0.26,0.23,0.42,0.03,0.67,0.23c0.17,0.13,0.32-0.12,0.47-0.2c0.16-0.07,0.32-0.19,0.49-0.21c0.38-0.05,0.77-0.07,1.15-0.09 c0.31,0,0.63,0.04,0.93-0.01c0.35-0.06,0.69-0.2,1.04-0.27c0.6-0.13,1.19-0.28,1.81-0.38c0.32-0.06,0.63-0.17,0.95-0.24 c0.58-0.1,1.17-0.15,1.76-0.24c0.22-0.02,0.44-0.09,0.66-0.11c0.22-0.01,0.46-0.09,0.65,0.05c0.31,0.21,0.66,0.27,0.97,0.44 c0.54,0.28,1.01,0.75,1.63,0.72c0.74-0.07,1.47,0.14,2.12,0.5c0.35,0.18,0.69,0.41,1.06,0.56c0.16,0.07,0.4-0.06,0.59-0.05 c0.35,0,0.69,0.07,1.02,0.16c0.5,0.15,1.17,0.04,1.55,0.48c0.3,0.33,0.61,0.64,0.89,0.97c0.27,0.35,0.54,0.69,0.79,1.04 c0.25,0.33,0.38,0.76,0.57,1.12c0.04,0.07,0.09,0.15,0.19,0.17c0.61,0.1,0.81,0.59,1.1,0.97c0.13,0.18,0.13,0.46,0.1,0.73 c0.39-0.76,0.73-1.57,1.05-2.34c0.34-0.81,0.54-1.67,0.86-2.47c0.85-2.18,1.07-4.49,1.18-6.79c0.11-2.2,0.01-4.45,0.77-6.47 c0.35-0.95,0.18-2.26-0.19-3.39c-0.08-0.25-0.23-0.47-0.26-0.73c-0.4-2.55-0.93-5.1-1.64-7.59c-0.86-3.03-1.84-6.03-3.34-8.8 c-2.05-3.77-4.13-7.59-6.24-11.47c-0.16-0.31-0.38-0.64-0.46-0.94c-0.26-1.04-0.85-1.81-1.46-2.38c-0.6-0.54-0.98-1.23-1.4-1.94 c-0.74-1.23-1.63-2.4-2.26-3.65c-1.01-2.03-2.48-3.82-3.29-5.93c-0.14-0.37-0.31-0.75-0.43-1.11c-0.21-0.66-0.3-1.21-1.01-1.81 c-0.4-0.33-0.73-1.24-1.07-1.9c-0.59-1.11-1.22-2.15-2.03-3.18c-0.94-1.19-1.91-2.53-2.58-3.83c-0.84-1.64-2.05-2.86-3.07-4.28 c-1.21-1.67-2.41-3.45-3.98-4.77c-0.24-0.21-0.47-0.67-0.65-1.01c-0.49-0.96-0.99-1.92-1.43-2.86c-0.18-0.39-0.25-0.8-0.28-1.16 c-0.05-0.51-0.02-0.98-0.02-1.47c-0.02-2.19,1.83-2.25,4.05,0.11c0.81,0.85,1.65,1.87,2.18,2.86c1.08,1.98,2.4,3.54,3.92,5.15 c1.03,1.09,1.93,2.45,3.01,3.52c0.55,1.51,1.68,2.81,2.49,4.23c0.37,0.66,0.67,1.41,1.12,1.95c0.61,0.75,0.82,1.45,1.15,2.21 c0.44,1.07,1.02,2.14,1.45,3.21c0.51,1.23,1.52,2.19,1.96,3.43c0.04,0.11,0.15,0.26,0.23,0.35c1.55,1.56,2.41,3.8,3.73,5.6 c0.82,1.12,1.7,2.28,2.31,3.53c0.77,1.57,1.72,2.78,2.59,4.18c0.61,0.99,1.2,2.02,1.76,3.08c1.48,1.54,2.92,3.16,4.44,4.67 c0.61,0.61,1.21,1.25,1.85,1.79c3.57,2.95,7.09,5.98,10.72,8.89c0.65,0.55,1.27,1.17,1.96,1.65c1.16,0.82,2.35,1.58,3.56,2.29 c0.48,0.29,0.99,0.54,1.43,0.88l3.28,2.43l0.12-0.13c1.18,0.88,2.38,1.72,3.59,2.57c1.24,0.77,2.46,1.61,3.73,2.34 c0.91,0.51,1.82,1.01,2.75,1.49c0.95,0.42,1.91,0.81,2.89,1.19c1.17,0.46,2.38,0.76,3.56,1.15c1.19,0.39,2.42,0.56,3.63,0.82 c0.71,0.17,1.43,0.19,2.15,0.29c0.71,0.08,1.43,0.18,2.15,0.3c1.31,0.07,2.63,0.14,3.95,0.13c0.38-0.04,0.77-0.07,1.15-0.1 c-0.01-0.12,0.01-0.24,0.09-0.35c0.32-0.43,0.16-0.8-0.15-1.2c-0.21-0.28-0.18-0.58-0.44-0.87c0.43-0.29,0.23-0.61,0.37-0.91 c0.07-0.14,0.23-0.28,0.16-0.41c-0.09-0.18,0.11-0.3,0.26-0.44c0.21-0.2,0.31-0.41,0.51-0.6c0.22-0.22-0.1-0.5,0.19-0.7 c0.03-0.02,0.02-0.05-0.01-0.08c-0.47-0.45-0.05-0.84-0.27-1.28c-0.14-0.28-0.32-0.58-0.25-0.84c0.08-0.32-0.14-0.65-0.24-0.99 c-0.13-0.46-0.14-0.93-0.07-1.37c0.05-0.35,0.31-0.65,0.45-0.97c0.22-0.42,0.42-0.85,0.59-1.28c0.13-0.32,0.21-0.66,0.32-0.98 c0.02-0.06,0.05-0.13,0.13-0.16c0.66-0.27,0.82-0.75,0.91-1.29c0.14-0.72,0.27-1.47,0.54-2.16c0.04-0.12,0.12-0.24,0.06-0.4 c-0.18-0.52,0.04-0.84,0.11-1.24c0.03-0.16,0.25-0.22,0.45-0.24c0.47-0.06,0.73-0.27,0.81-0.66c0.05-0.21-0.12-0.63,0.33-0.56 c0.06,0.01,0.02-0.12,0.03-0.18c0.03-0.48-0.09-1.1,0.46-1.2c0.2-0.04,0.14-0.45,0.51-0.35c0.34,0.1,0.4-0.14,0.71-0.07 c0.21,0.05,0.24-0.24,0.35-0.37c0.11-0.14,0.2-0.31,0.34-0.41c0.32-0.21,0.62-0.43,0.99-0.56c0.29-0.12,0.59-0.21,0.85-0.37 c0.3-0.19,0.56-0.44,0.83-0.66c0.46-0.41,1.01-0.67,1.52-1c0.27-0.17,0.52-0.38,0.79-0.56c0.48-0.34,1.01-0.56,1.55-0.79 c0.2-0.09,0.37-0.23,0.57-0.32c0.2-0.09,0.39-0.23,0.61-0.17c0.36,0.11,0.68,0,1.02,0.09c0.58,0.12,1.15,0.46,1.69,0.21 c0.32-0.15,0.65-0.25,0.99-0.3c0.34-0.03,0.68,0.02,1.01,0.09c0.36,0.08,0.72,0.15,1.08,0.16c0.15,0,0.32-0.2,0.48-0.26 c0.3-0.11,0.61-0.25,0.9-0.27c0.45-0.04,0.94-0.37,1.39-0.17c0.69,0.33,1.41,0.54,2.05,0.92c0.3,0.19,0.58,0.44,0.87,0.65 c0.06,0.04,0.13,0.07,0.21,0.03c0.49-0.23,0.86,0.01,1.25,0.12c0.2,0.06,0.34,0.3,0.45,0.55c0.11,0.23-0.01,0.57-0.27,0.92 c-0.27,0.37-0.49,0.59-0.72,0.52c-0.29-0.08-0.62-0.06-1.02,0.21c-0.38,0.26-0.77,0.49-1.1,0.59c-0.29,0.09-0.56,0.09-0.83,0.07 c-0.27-0.01-0.54,0-0.81,0.03c-0.16,0.02-0.33,0-0.49,0.08c-0.93,0.45-1.76,0.56-2.56,0.79c-0.15,0.03-0.29-0.06-0.44,0 c-0.24,0.1-0.48,0.27-0.71,0.41c-0.09,0.05-0.18,0.16-0.27,0.16c-0.22-0.01-0.45-0.02-0.67-0.03l0.01,0.17 c-0.49-0.12-1-0.23-1.54-0.38c-0.38-0.09-0.74-0.05-1.08,0.06c-0.41,0.15-0.85,0.18-1.24,0.37c-0.22,0.14-0.43,0.26-0.69,0.31 c-0.47,0.09-0.88,0.31-1.33,0.47c-0.19,0.09-0.39,0.19-0.67,0.12c-0.8-0.19-1.26,0.25-1.71,0.64c-0.1,0.08-0.15,0.24-0.15,0.42 c0,0.56-0.22,0.82-0.67,0.89c-0.07,0.01-0.14,0.04-0.11,0.13c0.18,0.59-0.11,0.74-0.3,1c-0.14,0.2-0.28,0.42-0.59,0.47 c-0.34,0.06-0.4,0.36-0.8,0.39c-0.36,0.05-0.34,0.44-0.48,0.69c-0.07,0.13-0.07,0.32-0.19,0.42c-0.32,0.27-0.38,0.7-0.5,1.09 c-0.09,0.39-0.15,0.77-1.1,0.68c-0.44-0.04-0.48,0.2-0.38,0.47c0.02,0.06,0.11,0.15,0.09,0.19c-0.18,0.41-0.33,0.83-0.42,1.27 c-0.11,0.53-0.3,1.05-0.06,1.67c0.38,0.87,0.64,1.66,0.61,2.38c0,0.06,0.03,0.13-0.04,0.16c-0.26,0.12-0.14,0.3,0.14,0.48 c0.26,0.17,0.26,0.3,0.28,0.44c0.04,0.24,0.22,0.5,0.12,0.7c-0.16,0.34,0.14,0.74-0.31,1.04c-0.08,0.05-0.14,0.11-0.23,0.16 c-0.17,0.09-0.39,0.16-0.11,0.32c0.15,0.09-0.06,0.23-0.13,0.34c-0.12,0.19-0.16,0.39-0.06,0.6c0.12,0.25,0.16,0.51-0.04,0.74 c-0.26,0.29,0.02,0.57,0.05,0.85c0.02,0.33-0.04,0.68,0.43,0.98c0.01,0.01,0,0.02,0,0.03c0.35-0.04,0.71-0.09,1.04-0.11 c3.2-0.35,6.28-1.75,9.05-3.5c0.6-0.37,1.19-0.82,1.67-1.28c0.38-0.33,0.73-0.7,1.09-1.06c0.36-0.35,0.74-0.69,1.13-1.01 c0.39-0.32,0.79-0.62,1.21-0.92c0.42-0.29,0.86-0.56,1.25-0.88c0.24-0.18,0.56-0.44,0.67-0.67c0.83-1.47,2.03-2.74,3.11-4.07 c0.36-0.57,0.74-1.15,1.13-1.7c0.19-0.28,0.41-0.54,0.59-0.82c0.17-0.28,0.35-0.56,0.54-0.82c0.41-0.59,0.81-1.21,1.1-1.87 c0.28-0.67,0.57-1.34,0.97-1.99c0.4-0.58,0.52-1.34,0.71-2.09c0.08-0.38,0.16-0.76,0.24-1.14c0.05-0.39,0.09-0.78,0.14-1.15 c0.09-0.82,0.18-1.64,0.24-2.44c0.28-2.17,0.05-4.33-0.28-6.47c-0.29-2.05-0.83-4.08-0.39-6.09c0.17-0.94-0.23-2.1-0.73-3.09 c-0.12-0.22-0.31-0.39-0.39-0.61c-0.81-2.27-1.72-4.52-2.81-6.67c-0.68-1.3-1.32-2.62-2.12-3.85c-0.39-0.62-0.77-1.24-1.19-1.84 c-0.44-0.59-0.89-1.16-1.37-1.71c-2.63-3.01-5.3-6.01-8.08-9c-0.22-0.24-0.48-0.49-0.61-0.74c-0.48-0.86-1.19-1.41-1.89-1.75 c-0.67-0.33-1.16-0.85-1.74-1.36c-0.98-0.88-2.03-1.71-2.93-2.62c-0.72-0.75-1.51-1.43-2.3-2.1c-0.8-0.66-1.57-1.34-2.21-2.16 c-0.22-0.29-0.49-0.56-0.69-0.84c-0.37-0.51-0.61-0.98-1.43-1.25c-0.45-0.15-1-0.87-1.51-1.3c-0.87-0.76-1.74-1.45-2.78-2.04 c-1.23-0.64-2.49-1.46-3.53-2.28c-1.31-1.05-2.77-1.61-4.18-2.31c-1.64-0.9-3.39-1.75-5.2-2.07c-0.29-0.04-0.67-0.29-0.96-0.48 c-0.82-0.51-1.63-1.1-2.43-1.58c-0.33-0.21-0.58-0.51-0.77-0.78c-0.28-0.39-0.5-0.79-0.74-1.19c-1.11-1.81,0.26-2.87,3.29-2.19 c1.09,0.26,2.27,0.71,3.19,1.25c0.93,0.53,1.81,1.05,2.75,1.43c0.46,0.2,0.94,0.38,1.42,0.55c0.47,0.19,0.95,0.37,1.45,0.55 c0.67,0.24,1.35,0.55,2.03,0.86c0.67,0.33,1.33,0.66,2.02,0.91c1.07,1.08,2.54,1.8,3.76,2.76c0.57,0.43,1.1,0.99,1.67,1.32 c0.8,0.45,1.22,1,1.76,1.56c0.76,0.78,1.57,1.59,2.3,2.4c0.84,0.92,2.03,1.47,2.78,2.46c0.07,0.09,0.21,0.19,0.31,0.24 c0.94,0.44,1.75,1.13,2.53,1.86c0.78,0.73,1.58,1.45,2.39,2.11c1.02,0.81,2.16,1.59,3.01,2.59c1.06,1.26,2.29,2.08,3.38,3.17 c0.76,0.75,1.54,1.5,2.25,2.32c0.71,0.83,1.4,1.67,2.07,2.53c1.03,1.41,1.91,2.94,2.8,4.44c0.58,1,1.19,1.98,1.75,3l1.65,3.06 l1.14,2.3c0.4,0.76,0.77,1.53,1.09,2.33c0.13,0.3,0.27,0.64,0.32,0.94c0.27,1.25,0.59,2.49,1,3.72c0.44,1.21,0.83,2.45,1.26,3.7 c1.08,3.4,1.92,6.97,2.12,10.65c0.08,0.63,0.05,1.34,0.15,1.89C493.7,71.93,493.8,72.86,493.76,73.8z M385.29,135.33L385.29,135.33 L385.29,135.33L385.29,135.33z M385.29,135.28c0.04-0.03,0.09-0.06,0.13-0.09c0.02-0.01,0.02-0.01,0.03-0.02 c-0.02,0.01-0.05,0.02-0.06,0.03C385.37,135.22,385.34,135.25,385.29,135.28z" fill="#c07d27"/></g></g></svg>